<svg width="329" height="675" viewBox="0 0 329 675" fill="none" xmlns="http://www.w3.org/2000/svg">
<path d="M167.689 498.364C167.348 504.185 166.384 509.964 165.906 515.778C165.217 524.181 165.298 532.612 164.962 541.03C164.754 546.256 164.748 551.482 164.961 556.708C165.201 562.584 165.936 568.421 166.214 574.292C166.846 587.622 165.392 600.994 164.114 614.245C162.933 602.157 161.645 589.993 161.868 577.829C161.976 571.845 162.729 565.906 163.069 559.933C163.42 553.766 163.493 547.581 163.241 541.408C162.84 531.524 162.996 521.626 162.045 511.769C161.71 508.31 161.244 504.87 160.84 501.42C160.453 498.12 159.996 494.433 160.728 491.146C161.449 487.918 162.809 484.948 163.24 481.606C163.682 478.162 163.596 474.652 163.238 471.204C162.425 463.34 163.334 455.749 164.114 447.912C164.753 453.901 165.926 460.124 165.522 466.16C165.141 471.841 163.808 477.144 164.814 482.877C165.218 485.178 165.921 487.404 166.836 489.55C168 492.28 167.861 495.43 167.689 498.364V498.364ZM325.505 348.173C323.317 346.828 324.609 347.621 325.5 348.169C318.517 343.873 314.022 335.865 308.565 329.941C305.949 327.101 303.048 324.356 299.161 323.492C297.936 323.218 295.04 323.593 294.316 322.914C293.778 322.412 293.369 320.918 293.077 320.246C292.584 319.112 292.122 317.964 291.686 316.806C288.568 308.526 286.689 299.812 285.701 291.03C285.104 285.718 284.817 280.426 283.82 275.161C282.105 266.1 279.406 257.24 275.953 248.689C274.594 245.325 273.352 241.272 271.273 238.282C269.689 236.002 268.216 234.057 267.468 231.281C266.345 227.112 266.857 222.268 266.554 217.957C266.234 213.426 265.768 208.906 265.181 204.401C264.044 195.69 262.56 187.002 260.562 178.445C260.081 176.376 260.528 174.377 260.7 172.266C260.89 169.938 261.005 167.604 261.049 165.269C261.136 160.756 260.946 156.226 260.368 151.748C259.309 143.564 254.409 136.217 250.08 129.384C245.362 121.94 237.732 118.922 229.34 117.325C224.925 116.485 220.437 116.058 215.949 115.89C213.774 115.808 211.597 115.79 209.421 115.845C208.102 115.877 207.741 115.768 206.698 114.978C205.822 114.316 204.924 113.682 204.02 113.061C200.349 110.54 196.546 108.21 192.736 105.908C191.709 105.288 190.681 104.672 189.649 104.06C189.136 103.754 187.85 103.332 187.582 102.828C187.457 102.59 187.5 102.065 187.472 101.809C187.037 97.849 186.604 93.8877 186.169 89.9263C185.981 88.2077 185.793 86.4903 185.605 84.7716C185.581 84.5516 185.413 83.9983 185.497 83.7863C185.589 83.5503 186.233 83.2837 186.481 83.1117C187.37 82.493 188.182 81.7743 188.882 80.9463C190.616 78.8916 191.321 76.177 192.18 73.6757C193.392 70.1463 194.482 66.5716 195.448 62.9663C199.608 47.417 201.657 28.2517 192.673 13.873C188.645 7.42767 182.293 2.97034 174.934 1.137C172.118 0.434336 164.713 -0.445674 159.265 0.259659C151.928 1.20766 144.41 3.80098 139.221 9.17965C133.608 14.9943 131.013 22.8596 129.93 30.7196C127.773 46.3903 131.739 61.7877 136.962 76.4783C137.538 78.0957 138.165 79.6396 139.285 80.969C139.848 81.6356 140.486 82.2463 141.181 82.773C141.438 82.9703 142.58 83.549 142.688 83.8237C142.972 84.5463 142.405 86.4023 142.324 87.1436C141.862 91.3583 141.4 95.5716 140.938 99.785C140.85 100.588 140.989 102.104 140.605 102.828C140.338 103.332 139.053 103.754 138.538 104.06C137.506 104.672 136.478 105.288 135.452 105.908C133.517 107.077 131.59 108.258 129.677 109.462C127.821 110.632 125.977 111.82 124.169 113.061C123.364 113.613 122.567 114.174 121.785 114.758C120.601 115.641 120.253 115.882 118.766 115.845C114.241 115.733 109.702 115.909 105.202 116.393C97.1929 117.256 87.8044 118.95 81.7232 124.692C78.8581 127.397 76.8971 131.208 74.9039 134.57C72.7279 138.241 70.6237 142.03 69.1612 146.052C67.6795 150.126 67.4112 154.564 67.2164 158.862C67.0153 163.328 67.1243 167.812 67.4872 172.266C67.6596 174.377 68.1071 176.376 67.6248 178.445C67.1024 180.684 66.6227 182.933 66.1716 185.186C65.3096 189.497 64.5508 193.826 63.8893 198.173C62.5263 207.117 61.5691 216.126 61.2519 225.172C61.1039 229.385 60.7372 233.126 58.2284 236.682C56.7471 238.78 55.6476 240.776 54.5695 243.181C48.4039 256.922 44.3227 271.386 42.9128 286.382C42.1268 294.748 40.8987 302.974 38.4581 311.036C37.8695 312.981 37.2175 314.905 36.5013 316.806C36.1085 317.849 35.6971 318.884 35.2581 319.908C34.9185 320.701 34.5028 322.325 33.8721 322.914C33.1476 323.593 30.2524 323.218 29.0279 323.492C27.03 323.936 25.2481 324.862 23.6415 326.116C17.0549 331.252 12.7753 338.892 6.87004 344.733C5.56432 346.024 4.18671 347.13 2.68151 348.173C1.44244 349.032 0.0518163 350.088 0.00181632 351.746C-0.0841212 354.593 2.94973 355.332 5.18151 355.156C7.85599 354.945 10.5971 354.182 12.9195 352.828C14.3789 351.977 15.5289 350.812 16.7279 349.638C17.6716 348.716 18.9367 347.053 20.3024 346.724C19.6347 349.665 17.8352 352.542 16.4571 355.188C14.6789 358.602 12.8227 361.98 10.8898 365.309C9.3664 367.934 6.06015 371.706 7.44609 374.877C9.96015 380.63 15.4748 373.41 17.2175 371.049C18.6945 369.048 19.9951 366.914 21.418 364.873C22.6415 363.118 23.9252 360.904 25.6789 359.614C25.6857 361.493 24.8852 363.476 24.3148 365.238C23.6085 367.42 22.8232 369.577 22.02 371.728C20.7461 375.136 18.1789 379.826 19.1185 383.53C19.6565 385.654 21.8519 387.157 23.9248 385.988C26.0795 384.773 27.156 381.802 28.0825 379.665C30.2867 374.577 31.8596 369.25 34.0445 364.158C34.2716 368.674 33.3727 373.165 33.2123 377.666C33.1331 379.87 32.9211 383.197 34.6325 384.921C36.2628 386.564 38.6659 385.676 39.6768 383.876C41.2185 381.132 40.9263 377.229 41.2128 374.158C41.432 371.797 41.6399 369.432 41.9675 367.082C42.1065 366.085 42.1664 363.012 43.2257 362.448C44.3935 363.557 43.4691 367.629 43.3295 369.032C43.07 371.625 42.7915 374.336 43.1581 376.934C43.494 379.316 45.5352 382.353 48.1227 380.21C49.7893 378.83 50.2257 376.073 50.4727 374.058C50.7549 371.753 50.7028 369.408 50.9112 367.093C51.2028 363.853 51.6112 360.628 51.9044 357.388C52.0456 355.84 52.6357 354.594 53.1888 353.134C54.1555 350.581 55.0456 347.997 55.7883 345.369C56.5309 342.744 57.2492 339.978 57.2424 337.232C57.2409 336.378 57.1721 335.514 56.9705 334.682C56.8456 334.169 56.2549 333.313 56.2607 332.826C56.2757 331.709 57.3877 329.994 57.806 328.993C60.4825 322.586 63.4789 316.298 66.5971 310.096C73.9857 295.398 82.1415 281.045 87.1867 265.306C89.8705 256.934 90.9919 248.282 93.2185 239.809C95.2367 232.129 97.8804 224.578 100.715 217.164C101.778 221.264 102.84 225.362 103.902 229.461C104.714 232.59 106.069 235.98 106.374 239.204C106.719 242.864 106.324 246.749 106.299 250.422C106.261 256.237 106.222 262.05 106.184 267.866C106.162 271.077 105.729 274.588 106.117 277.782C106.278 279.104 107.054 280.416 107.486 281.693C108.331 284.2 106.821 288.025 106.339 290.654C105.28 296.422 104.302 302.209 103.468 308.016C100.102 331.429 101.539 355.498 103.093 379.028C104.642 402.492 108.343 425.638 114.475 448.338C117.125 458.149 120.067 467.869 120.302 478.106C120.502 486.796 118.537 495.301 116.493 503.686C113.686 515.205 112.275 526.578 113.695 538.418C115.061 549.805 118.384 560.841 121.7 571.781C124.856 582.189 128.051 592.586 131.245 602.982C133.733 611.082 136.305 619.17 138.398 627.382C139.078 630.049 140.269 633.474 139.761 636.208C138.898 640.862 135.812 645.742 133.392 649.737C131.001 653.685 128.263 657.754 124.373 660.362C123.115 661.204 121.728 661.977 121.089 663.43C120.051 665.79 121.949 667.71 123.969 668.642C125.879 669.524 128.029 669.636 130.056 670.12C133.051 670.833 136.112 671.409 139.186 671.639C140.432 671.734 141.694 671.793 142.944 671.715C144.186 671.636 145.422 671.039 146.601 670.961C146.81 670.946 146.904 670.915 146.95 670.884C146.984 670.958 147.089 671.092 147.39 671.338C147.884 671.741 148.168 672.344 148.718 672.744C149.846 673.569 151.254 673.963 152.598 674.262C157.646 675.389 162.18 673.946 164.118 668.851C165.404 672.27 168.124 674.617 171.87 674.705C174.914 674.777 179.776 673.936 180.96 670.666C185.293 672.893 191.332 671.553 195.857 670.625C198.12 670.161 200.51 669.829 202.712 669.205C204.61 668.668 206.922 667.477 207.336 665.356C207.993 661.982 202.914 659.972 200.937 657.999C197.265 654.338 194.508 649.589 192.146 645.015C190.298 641.434 187.953 637.534 188.52 633.392C189.013 629.774 190.066 626.203 191.04 622.698C192.969 615.753 195.133 608.874 197.249 601.985C200.422 591.657 203.598 581.329 206.728 570.986C210.002 560.166 213.248 549.241 214.542 537.974C215.858 526.533 214.569 515.47 211.853 504.337C209.753 495.732 207.684 487.018 207.886 478.097C208.106 468.36 210.808 459.106 213.34 449.772C216.313 438.81 218.924 427.797 220.778 416.586C222.632 405.393 223.808 394.141 224.798 382.844C225.817 371.229 226.256 359.518 226.469 347.865C226.676 336.57 226.944 325.34 225.369 314.126C224.592 308.594 223.606 303.092 222.533 297.61C221.969 294.725 221.374 291.845 220.754 288.97C220.472 287.664 220.184 286.357 219.89 285.052C219.497 283.297 219.497 282.453 219.804 280.696C220.537 276.492 220.081 271.945 220.053 267.677C219.993 259.017 219.93 250.357 219.866 241.697C219.848 238.933 220.46 236.989 221.268 234.294L225.905 218.845L226.873 215.617C229.242 221.669 231.388 227.821 233.308 234.029C235.657 241.628 236.77 249.416 238.673 257.114C242.664 273.261 250.145 288.294 257.881 302.928C261.517 309.809 264.956 316.788 268.158 323.882C269.326 326.47 271.096 329.421 271.682 332.194C271.921 333.325 271.234 334.334 271.058 335.557C270.829 337.152 270.981 338.777 271.24 340.357C272.081 345.492 273.98 350.385 275.814 355.226C276.552 357.168 276.489 359.41 276.709 361.474C277.037 364.56 277.437 367.661 277.54 370.762C277.622 373.218 277.706 375.728 278.656 378.037C279.709 380.605 282.894 382.362 284.485 379.022C285.694 376.484 285.249 372.852 284.972 370.124C284.83 368.728 284.677 367.333 284.601 365.932C284.558 365.136 284.216 363.161 284.84 362.482C285.949 362.972 286.064 366.109 286.206 367.08C286.546 369.412 286.753 371.762 286.972 374.108C287.26 377.197 286.97 381.11 288.51 383.874C289.466 385.59 291.674 386.506 293.342 385.108C295.21 383.542 295.046 380.186 294.989 378.013C294.866 373.393 293.909 368.79 294.141 364.157C296.33 369.248 297.9 374.577 300.105 379.665C301.037 381.816 302.173 385.029 304.464 386.108C306.617 387.122 308.689 385.421 309.11 383.306C309.87 379.508 307.357 374.914 306.056 371.425C304.728 367.864 302.496 363.484 302.508 359.614C305.644 361.92 307.749 366.325 309.892 369.504C311.614 372.058 315.769 379.134 319.586 376.317C323.097 373.726 319.446 368.946 317.872 366.289C316.013 363.153 314.254 359.953 312.545 356.734C310.892 353.622 308.676 350.2 307.886 346.724C310.349 347.318 312.304 350.801 314.329 352.228C316.43 353.706 318.974 354.554 321.493 354.965C323.33 355.266 325.488 355.554 327.014 354.229C329.393 352.168 327.664 349.498 325.505 348.173" fill="white"/>
<path d="M175.589 487.065C179.186 493.912 188.401 495.693 194.676 491.53C200.813 487.46 203.233 478.413 198.906 472.16C201.282 478.729 199.118 486.574 192.937 490.218C187.134 493.638 179.976 491.878 175.589 487.065ZM147.474 490.837C147.205 490.96 147.286 490.921 147.456 490.844C142.029 493.285 135.49 491.762 131.697 487.181C128.237 483.002 127.452 477.218 129.281 472.16C124.964 478.418 127.366 487.456 133.512 491.53C139.781 495.686 149.01 493.918 152.598 487.065C151.152 488.646 149.457 489.924 147.505 490.821C147.892 490.644 148.592 490.326 147.474 490.837V490.837ZM147.505 490.821L147.456 490.844L147.474 490.837L147.505 490.821ZM162.901 278.51C162.753 277.702 162.621 275.966 163.837 275.604C161.888 274.361 160.796 277.676 160.966 279.166C161.41 283.048 166.752 281.84 165.162 278.446C165.286 278.63 163.43 281.41 162.901 278.51V278.51ZM324.801 353.109C324.897 353.092 324.928 353.086 324.784 353.113C323.745 353.297 324.482 353.165 324.774 353.113C322.846 353.452 320.474 352.76 318.686 352.125C315.478 350.985 313.584 348.662 311.109 346.462C310 345.476 306.313 343.053 305.805 346.009C305.629 347.037 306.346 348.452 306.708 349.369C309.268 355.86 312.945 362.042 316.521 368.02C317.413 369.513 318.809 371.206 318.934 372.992C319.222 377.113 315.076 373.008 314.202 371.908C310.8 367.622 308.378 362.22 304.308 358.509C302.58 356.93 300.468 357.061 300.492 359.729C300.508 361.462 301.105 363.24 301.606 364.876C302.557 367.976 303.713 371.009 304.848 374.044C305.653 376.197 306.6 378.406 307.009 380.674C307.354 382.578 306.512 385.856 304.401 383.386C302.773 381.482 301.885 378.692 300.922 376.408C299.636 373.356 298.645 370.173 297.488 367.07C296.994 365.742 295.94 360.862 293.95 360.778C291.466 360.672 292.065 365.792 292.117 367.102C292.242 370.204 292.642 373.281 292.857 376.376C292.961 377.866 293.614 382.408 292.066 383.513C289.645 385.241 289.378 377.908 289.301 376.992C289.138 375.092 288.952 373.193 288.764 371.296C288.605 369.688 287.968 357.945 283.774 360.776C281.729 362.157 282.556 366.462 282.74 368.441C282.956 370.766 283.201 373.058 283.097 375.398C283.029 376.901 282.164 380.633 280.714 377.629C279.458 375.021 279.697 371.984 279.506 369.184C279.273 365.76 278.857 362.349 278.501 358.937C278.369 357.664 278.392 356.365 278.005 355.164C276.645 350.944 274.834 346.936 273.792 342.596C272.94 339.046 271.888 334.181 275.702 332.186C276.325 331.861 277.277 331.445 276.634 330.536C275.848 329.428 273.83 330.733 273.19 331.274C265.181 308.196 251.5 287.589 243.856 264.377C241.858 258.312 240.589 252.152 239.26 245.92C237.929 239.682 235.936 233.586 233.714 227.614C231.905 222.752 229.741 218.053 227.776 213.257C227.314 212.133 227.584 211.332 227.77 210.1C227.853 209.55 227.828 208.769 228.049 208.258C228.404 207.437 229.577 206.693 230.161 205.934C234.322 200.517 234.461 192.308 234.018 185.796C233.778 182.274 233.15 178.757 232.173 175.365C231.673 173.63 230.75 171.932 230.882 170.126C231.02 168.245 231.136 166.364 231.226 164.48C230.896 166.108 230.584 167.741 230.288 169.377C229.989 171.028 230.065 171.678 230.436 173.321C231.166 176.561 231.62 179.893 231.801 183.209C232.137 189.358 232.037 197.142 228.842 202.612C225.513 208.314 218.561 209.762 212.533 210.796C209.06 211.39 205.549 211.793 202.038 212.102C200.458 212.242 198.876 212.358 197.293 212.456C195.592 212.561 193.44 212.996 191.752 212.724C190.133 212.462 188.268 210.8 186.825 209.909C185.2 208.908 183.573 207.909 181.937 206.926C178.444 204.826 174.956 202.709 171.401 200.716C175.529 203.98 179.781 207.098 184.028 210.204C185.981 211.63 188.208 213.881 190.43 214.814C192.002 215.474 194.442 215.073 196.161 215.057C201.4 215.012 206.662 214.688 211.848 213.933C216.494 213.256 221.305 212.374 225.424 210.012C225.153 211.586 224.882 213.16 224.61 214.736L224.561 214.574C222.196 221.889 219.832 229.205 217.466 236.52C217.308 237.01 217.198 237.576 216.974 238.041C216.845 238.308 216.457 240.781 216.464 241.605C216.505 246.34 216.546 251.076 216.586 255.81C216.64 261.982 216.917 268.153 216.892 274.325C216.889 275.258 216.9 276.192 216.881 277.126C216.844 278.916 216.212 280.574 216.085 282.309C215.958 284.034 216.75 286.061 217.116 287.784C217.645 290.289 218.154 292.8 218.642 295.314C220.538 305.085 222.426 315.041 222.892 325.001C223.356 334.962 222.832 345.101 222.445 355.061C222.06 365.01 221.589 374.954 220.694 384.87C218.873 405.06 215.797 424.946 210.53 444.54C207.994 453.977 204.944 463.385 204.068 473.166C203.582 478.578 203.848 484.164 204.63 489.524C206.061 499.333 209.417 508.741 210.636 518.585C211.844 528.34 210.978 538.044 209.049 547.642C206.357 561.046 201.944 574.133 198.04 587.229C195.113 597.045 192.118 606.848 189.305 616.697C188.141 620.769 186.972 624.861 186.093 629.005C185.574 631.453 184.853 634.142 185.301 636.641C185.848 639.692 187.574 642.737 188.984 645.456C191.042 649.427 193.405 653.289 196.174 656.808C197.398 658.362 198.738 659.834 200.261 661.103C201.372 662.027 202.666 662.665 203.785 663.56C206.664 665.86 201.473 666.786 199.848 667.078C195.004 667.956 190.389 669.682 185.365 669.413C184.462 669.365 183.5 669.281 182.648 668.962C181.42 668.503 181.346 668.221 181.288 667.044C181.248 666.222 181.12 665.433 180.777 664.68C180.589 664.265 179.805 662.774 179.414 662.545C177.482 661.416 178.917 665.11 179.056 665.592C179.474 667.048 180.084 669.215 179.222 670.52C178.272 671.962 175.866 672.349 174.32 672.586C172.186 672.915 169.89 672.872 168.181 671.384C164.248 667.961 165.21 661.17 165.192 656.45C165.162 649.569 165.166 642.689 165.233 635.808C165.394 619.224 168.321 602.813 168.97 586.241C169.361 576.292 168.208 566.521 167.857 556.597C167.613 549.666 167.888 542.766 168.192 535.845C168.576 527.101 168.59 518.412 169.506 509.692C170.022 504.781 170.806 499.833 170.68 494.881C170.638 493.269 170.614 491.438 170.144 489.888C169.513 487.805 168.405 485.924 167.892 483.772C166.74 478.932 167.218 474.045 167.937 469.185C168.649 464.369 168.092 459.544 167.54 454.74C166.449 445.232 165.616 435.824 165.406 426.252C165.11 412.805 165.44 399.341 165.269 385.889C165.206 380.954 165.144 376.018 165.081 371.082L165 364.638C164.988 363.792 164.585 361.872 164.954 361.09C165.222 360.522 166.169 360.788 166.874 360.698C168.962 360.441 171.04 359.786 172.793 358.598C176.068 356.381 177.38 352.642 176.7 348.826C176.074 351.432 175.072 353.93 172.838 355.569C170.468 357.309 167.402 357.802 164.525 357.801C161.61 357.8 158.529 357.318 156.12 355.566C153.888 353.94 152.882 351.422 152.256 348.826C151.728 351.786 152.314 354.769 154.369 357.042C155.548 358.348 157.069 359.285 158.71 359.898C159.582 360.225 160.496 360.46 161.416 360.609C161.769 360.666 163.057 360.58 163.237 360.809C163.444 361.072 163.218 362.34 163.214 362.657C163.196 364.073 163.178 365.489 163.16 366.905C163.064 374.452 162.969 381.997 162.873 389.542C162.72 401.626 163.042 413.721 162.79 425.8C162.628 433.634 162.181 441.398 161.344 449.19C160.916 453.182 160.408 457.173 160.141 461.178C159.877 465.166 160.338 468.969 160.612 472.934C160.886 476.896 160.74 480.894 159.762 484.754C159.008 487.741 157.778 490.214 157.568 493.316C157.016 501.473 159.022 509.836 159.494 517.98C159.861 524.306 159.756 530.644 160.048 536.97C160.306 542.59 160.525 548.2 160.405 553.828C160.234 561.966 159.141 570.056 159.08 578.193C159.016 586.504 159.625 594.813 160.446 603.077C161.262 611.273 162.48 619.47 163.001 627.689C163.224 631.193 163.086 634.729 163.066 638.237C163.03 644.133 163.042 650.03 163.064 655.927C163.073 658.454 163.182 660.989 163.102 663.515C163.005 666.524 162.102 670.406 159.25 672.015C156.781 673.408 151.944 672.974 149.765 671.09C148.622 670.103 148.637 668.836 148.966 667.438C149.16 666.621 149.908 663.273 150.804 663.37C150.518 662.173 148.876 662.003 148.208 662.923C147.153 664.382 147.66 667.145 146.584 668.42C145.62 669.563 142.916 669.441 141.629 669.417C139.401 669.38 137.188 669.068 135 668.661C132.998 668.29 131.039 667.782 129.067 667.285C128.11 667.044 127.14 667.038 126.193 666.749C125.466 666.527 123.505 665.865 123.424 664.868C123.338 663.836 125.186 663.057 125.935 662.568C131.839 658.706 135.82 651.909 139.024 645.799C140.457 643.066 142.132 640.061 142.805 637.017C143.242 635.046 142.874 632.953 142.506 630.999C140.512 620.423 136.972 610.116 133.9 599.813C131.912 593.144 129.908 586.48 127.935 579.805C123.231 563.892 117.538 547.621 117.002 530.884C116.724 522.216 118.08 513.832 120.148 505.442C122.088 497.572 123.985 489.71 124.261 481.574C124.721 468.008 120.501 455.257 117.069 442.286C112.61 425.433 109.652 408.193 108.028 390.837C106.416 373.594 105.612 356.317 105.349 339.004C105.216 330.309 105.296 321.797 106.328 313.149C107.375 304.38 108.81 295.653 110.404 286.968C110.654 285.604 111.323 283.865 111.23 282.489C111.116 280.792 110.049 278.692 109.377 277.15C109.454 277.374 109.591 277.59 109.69 277.805C109.714 267.576 109.738 257.345 109.762 247.114C109.767 244.89 109.772 242.666 109.777 240.442C109.778 240.012 109.473 238.644 109.348 238.35C108.61 236.61 108.259 234.588 107.735 232.776C106.821 229.616 105.906 226.454 104.991 223.294C104.221 220.629 103.344 217.972 102.672 215.28C102.206 213.409 102.158 211.452 101.953 209.526C106.013 212.122 110.862 213.088 115.557 213.816C120.869 214.637 126.262 214.989 131.634 215.054C133.376 215.076 136.014 215.502 137.629 214.905C138.541 214.568 139.536 213.55 140.326 212.982C141.394 212.216 142.46 211.444 143.522 210.669C147.985 207.413 152.452 204.142 156.786 200.716C150.793 204.076 144.921 207.682 139.093 211.318C138.469 211.708 137.558 212.54 136.832 212.738C136.178 212.916 135.138 212.674 134.458 212.645C132.61 212.562 130.762 212.457 128.916 212.325C125.367 212.068 121.826 211.706 118.304 211.205C112.309 210.352 104.788 209.369 100.63 204.454C96.6227 199.718 96.3159 192.166 96.306 186.26C96.2992 182.428 96.7112 178.589 97.4372 174.828C97.7232 173.345 98.2653 171.997 98.1024 170.509C97.882 168.493 97.3643 166.465 96.9607 164.48C97.0336 165.986 97.1221 167.493 97.2248 168.998C97.3591 170.961 97.0315 172.11 96.4341 173.985C95.4961 176.93 94.8352 179.964 94.4429 183.029C93.6659 189.101 93.6143 196.274 95.8935 202.056C96.3904 203.316 97.0096 204.55 97.8117 205.645C98.3487 206.378 99.2519 206.998 99.5159 207.826C99.9221 209.1 99.7904 210.809 99.9117 212.138C100.08 213.965 99.7601 214.704 98.9997 216.458C98.0419 218.668 97.1164 220.893 96.2159 223.128C93.8648 228.962 91.7893 234.92 90.1205 240.986C88.4576 247.032 87.5971 253.257 85.8893 259.296C82.318 271.921 76.7263 283.949 70.8524 295.645C65.0128 307.274 59.27 318.958 54.9976 331.273C54.3596 330.734 51.5601 329.093 51.3768 331.03C51.2804 332.052 52.2467 332.01 52.8752 332.322C55.0076 333.374 55.2888 335.958 55.1576 338.09C54.818 343.593 52.5748 349.162 50.5576 354.238C50.0653 355.477 49.9524 356.274 49.8195 357.637C49.4467 361.485 48.9456 365.322 48.6825 369.18C48.568 370.86 48.6289 372.553 48.3804 374.222C48.218 375.321 47.9533 377.916 46.8752 378.594C44.7987 379.905 45.0691 373.962 45.0877 372.985C45.1481 369.752 46.0419 366.432 45.5576 363.204C45.2309 361.03 43.1237 359.3 41.4929 361.474C39.8935 363.606 39.8508 367.185 39.5804 369.709C39.3211 372.133 39.0967 374.565 38.8883 376.993C38.8248 377.737 37.9857 386.278 35.8309 383.082C35.1637 382.092 35.2601 380.37 35.244 379.246C35.2153 377.285 35.4237 375.345 35.6044 373.393C35.8909 370.302 36.2809 367.118 36.0721 364.009C36.0033 362.992 35.9325 361.374 34.8221 360.898C32.4861 359.894 31.1383 365.897 30.6981 367.074C29.4237 370.494 28.3195 373.99 26.8539 377.333C26.2137 378.794 24.4967 384.533 22.3737 384.382C18.4732 384.105 25.2185 368.974 25.7415 367.446C26.3451 365.678 29.4081 359.002 26.8039 357.542C25.4727 356.797 24.0648 358.257 23.2451 359.13C20.8325 361.704 18.9571 364.824 17.0065 367.742C16.1533 369.018 15.2623 370.253 14.3252 371.469C13.5133 372.522 12.2482 374.561 10.805 374.82C7.24245 375.458 10.9461 369.22 11.4826 368.33C13.1508 365.565 14.732 362.742 16.2804 359.908C18.3779 356.069 20.7357 352.076 22.0232 347.868C22.544 346.165 22.43 344.214 19.9341 344.685C16.6435 345.304 14.6019 349.516 11.768 351.109C9.63516 352.308 6.3612 353.473 3.8513 353.154C-0.882547 352.553 5.67892 348.598 6.76068 347.646C13.2758 341.917 17.5508 334.04 24.1148 328.381C26.9971 325.896 30.3691 324.842 34.1513 325.376C35.3831 325.548 36.5971 325.865 37.7648 326.293C38.3295 326.498 39.1257 327.072 39.7419 327.094C41.468 327.158 41.0596 325.605 40.0096 325.004C38.6633 324.233 36.9664 323.806 35.4637 323.505C40.1565 314.396 42.8721 304.154 44.3961 294.062C45.4232 287.26 45.7836 280.452 47.2159 273.705C49.3585 263.618 52.8456 253.784 57.1415 244.42C57.9888 242.574 58.7544 240.653 60.0497 239.09C61.6033 237.218 62.7232 235.049 63.5205 232.76C64.1508 230.95 64.6476 229.544 64.6617 227.774C64.6841 225.128 64.7637 222.482 64.8992 219.84C65.4415 209.258 66.9487 198.718 68.7924 188.292C69.2528 185.686 69.7544 183.09 70.3137 180.505C70.7429 178.517 71.0784 177.25 70.8451 175.29C70.2325 170.149 70.0071 164.937 70.182 159.762C70.3471 154.857 70.6804 149.973 72.5804 145.401C74.5336 140.698 77.1915 136.29 79.8861 131.985C82.4633 127.869 85.1565 124.97 89.6555 122.94C94.1528 120.909 99.0877 119.866 103.954 119.201C115.482 117.625 127.397 118.444 139.009 118.585C133.856 117.885 128.703 117.184 123.549 116.484C126.355 114.392 129.297 112.469 132.229 110.56C133.966 109.428 135.718 108.314 137.474 107.212C138.87 106.334 141.005 105.532 142.101 104.344C142.672 103.724 142.624 103.294 142.705 102.386C143.236 96.5249 143.766 90.6636 144.296 84.8023C147.576 86.9143 150.918 88.953 154.428 90.661C157.312 92.065 160.544 93.5957 163.808 93.6397C167.261 93.685 170.702 92.1077 173.746 90.6263C177.26 88.917 180.606 86.877 183.889 84.765C184.417 90.6143 184.946 96.4636 185.476 102.313C185.557 103.216 185.508 103.729 186.086 104.344C187.2 105.525 189.333 106.345 190.713 107.212C192.25 108.177 193.781 109.152 195.306 110.137C198.461 112.176 201.626 114.238 204.638 116.484C199.485 117.184 194.332 117.885 189.178 118.585C198.369 118.473 207.693 117.95 216.872 118.494C225.91 119.029 237.382 120.185 244.358 126.646C247.826 129.86 250.202 134.89 252.456 138.992C254.733 143.137 256.834 147.4 257.416 152.14C258.041 157.246 258.162 162.405 257.937 167.541C257.824 170.13 257.62 172.717 257.312 175.29C257.076 177.261 257.316 178.521 257.753 180.505C260.033 190.841 261.76 201.378 262.768 211.914C263.272 217.186 263.561 222.478 263.609 227.774C263.642 231.47 265.754 236.07 268.169 239.09C270.917 242.526 272.492 247.493 274.114 251.565C276.057 256.437 277.765 261.408 279.178 266.46C281.362 274.268 282.333 282.07 283.256 290.076C284.573 301.506 287.43 313.23 292.724 323.505C291.51 323.749 288.044 324.288 287.334 325.604C286.096 327.908 289.356 326.701 290.084 326.416C294.692 324.61 299.678 324.788 303.613 327.993C308.576 332.037 312.233 337.625 316.398 342.43C318.396 344.738 320.489 347.04 322.933 348.886C323.76 349.513 328.394 352.437 324.801 353.109V353.109ZM164.114 614.245C162.933 602.157 161.645 589.993 161.868 577.829C161.976 571.845 162.729 565.906 163.069 559.933C163.42 553.766 163.493 547.581 163.241 541.408C162.84 531.524 162.996 521.626 162.045 511.769C161.71 508.31 161.244 504.87 160.84 501.42C160.453 498.12 159.996 494.433 160.728 491.146C161.449 487.918 162.809 484.948 163.24 481.606C163.682 478.162 163.596 474.652 163.238 471.204C162.425 463.34 163.334 455.749 164.114 447.912C164.753 453.901 165.926 460.124 165.521 466.16C165.141 471.841 163.808 477.144 164.814 482.877C165.218 485.178 165.921 487.404 166.836 489.55C168 492.28 167.861 495.43 167.689 498.364C167.348 504.185 166.384 509.964 165.906 515.778C165.217 524.181 165.298 532.612 164.962 541.03C164.754 546.256 164.748 551.482 164.961 556.708C165.201 562.584 165.936 568.421 166.213 574.292C166.846 587.622 165.392 600.994 164.114 614.245V614.245ZM140.162 77.6597C140.326 77.9943 140.673 78.7103 140.154 77.6476C140.056 77.4423 140.082 77.4943 140.144 77.6223C139.014 75.273 138.313 72.525 137.537 70.0436C136.1 65.4383 134.833 60.7743 133.845 56.0516C131.991 47.1903 131.507 38.285 133.077 29.3343C134.425 21.6557 137.5 14.025 143.781 9.08232C149.524 4.56498 156.874 3.14899 164.022 2.95699C170.74 2.77699 178.026 4.43165 183.524 8.37965C190.145 13.1343 193.51 20.7663 194.988 28.577C196.67 37.4756 196.321 46.4183 194.54 55.265C193.069 62.5663 191.217 70.1916 188.313 77.0863C186.577 81.2103 181.682 83.4276 178.04 85.5943C174.156 87.9036 169.369 90.9996 164.738 91.3383C160.137 91.6756 154.997 88.3703 151.177 86.157C147.504 84.0277 142.122 81.661 140.162 77.6597V77.6597ZM325.505 348.173C323.317 346.828 324.609 347.621 325.5 348.169C318.517 343.873 314.021 335.865 308.565 329.941C305.949 327.101 303.048 324.356 299.161 323.492C297.936 323.218 295.04 323.593 294.316 322.914C293.778 322.412 293.369 320.918 293.077 320.246C292.584 319.112 292.122 317.964 291.686 316.806C288.568 308.526 286.689 299.812 285.701 291.03C285.104 285.718 284.817 280.426 283.82 275.161C282.105 266.1 279.405 257.24 275.953 248.689C274.594 245.325 273.352 241.272 271.273 238.282C269.689 236.002 268.216 234.057 267.468 231.281C266.344 227.112 266.857 222.268 266.554 217.957C266.234 213.426 265.768 208.906 265.181 204.401C264.044 195.69 262.56 187.002 260.562 178.445C260.081 176.376 260.528 174.377 260.7 172.266C260.89 169.938 261.005 167.604 261.049 165.269C261.136 160.756 260.946 156.226 260.368 151.748C259.309 143.564 254.409 136.217 250.08 129.384C245.362 121.94 237.732 118.922 229.34 117.325C224.925 116.485 220.437 116.058 215.949 115.89C213.774 115.808 211.597 115.79 209.421 115.845C208.102 115.877 207.741 115.768 206.698 114.978C205.822 114.316 204.924 113.682 204.02 113.061C200.349 110.54 196.546 108.21 192.736 105.908C191.709 105.288 190.681 104.672 189.649 104.06C189.136 103.754 187.849 103.332 187.582 102.828C187.457 102.59 187.5 102.065 187.472 101.809C187.037 97.849 186.604 93.8877 186.169 89.9263C185.981 88.2077 185.793 86.4903 185.605 84.7716C185.581 84.5516 185.413 83.9983 185.497 83.7863C185.589 83.5503 186.233 83.2837 186.481 83.1117C187.37 82.493 188.182 81.7743 188.882 80.9463C190.616 78.8916 191.321 76.177 192.18 73.6757C193.392 70.1463 194.482 66.5716 195.446 62.9663C199.608 47.417 201.657 28.2517 192.673 13.873C188.645 7.42767 182.293 2.97034 174.934 1.137C172.118 0.434336 164.713 -0.445674 159.265 0.259659C151.928 1.20766 144.41 3.80098 139.221 9.17965C133.608 14.9943 131.013 22.8596 129.93 30.7196C127.773 46.3903 131.739 61.7877 136.962 76.4783C137.537 78.0957 138.165 79.6396 139.285 80.969C139.848 81.6356 140.486 82.2463 141.181 82.773C141.438 82.9703 142.58 83.549 142.688 83.8237C142.972 84.5463 142.405 86.4023 142.324 87.1436C141.862 91.3583 141.4 95.5716 140.938 99.785C140.85 100.588 140.989 102.104 140.605 102.828C140.338 103.332 139.053 103.754 138.538 104.06C137.506 104.672 136.478 105.288 135.452 105.908C133.517 107.077 131.59 108.258 129.677 109.462C127.821 110.632 125.976 111.82 124.169 113.061C123.364 113.613 122.567 114.174 121.785 114.758C120.601 115.641 120.253 115.882 118.766 115.845C114.241 115.733 109.702 115.909 105.202 116.393C97.1929 117.256 87.8044 118.95 81.7232 124.692C78.8581 127.397 76.8971 131.208 74.9039 134.57C72.7279 138.241 70.6237 142.03 69.1612 146.052C67.6795 150.126 67.4112 154.564 67.2164 158.862C67.0153 163.328 67.1243 167.812 67.4872 172.266C67.6596 174.377 68.1071 176.376 67.6248 178.445C67.1019 180.684 66.6227 182.933 66.1716 185.186C65.3096 189.497 64.5508 193.826 63.8883 198.173C62.5257 207.117 61.5691 216.126 61.2519 225.172C61.1039 229.385 60.7372 233.126 58.2279 236.682C56.7471 238.78 55.6476 240.776 54.5695 243.181C48.4039 256.922 44.3227 271.386 42.9128 286.382C42.1268 294.748 40.8987 302.974 38.4581 311.036C37.8695 312.981 37.2175 314.905 36.5013 316.806C36.1085 317.849 35.6971 318.884 35.2581 319.908C34.9185 320.701 34.5028 322.325 33.8721 322.914C33.1476 323.593 30.2524 323.218 29.0279 323.492C27.03 323.936 25.2481 324.862 23.6415 326.116C17.0549 331.252 12.7753 338.892 6.87005 344.733C5.56329 346.024 4.18672 347.13 2.68152 348.173C1.44193 349.032 0.0518283 350.088 0.00182826 351.746C-0.0851509 354.593 2.94975 355.332 5.18152 355.156C7.856 354.945 10.5971 354.182 12.9195 352.828C14.3789 351.977 15.5289 350.812 16.7279 349.638C17.6716 348.716 18.9357 347.053 20.3024 346.724C19.6341 349.665 17.8352 352.542 16.4571 355.188C14.6789 358.602 12.8227 361.98 10.8899 365.309C9.36641 367.934 6.06016 371.706 7.4461 374.877C9.96016 380.63 15.4748 373.41 17.2175 371.049C18.6945 369.048 19.9951 366.914 21.418 364.873C22.6415 363.118 23.9252 360.904 25.6789 359.614C25.6857 361.493 24.8852 363.476 24.3148 365.238C23.6081 367.42 22.8232 369.577 22.02 371.728C20.7461 375.136 18.1784 379.826 19.1185 383.53C19.6565 385.654 21.8519 387.157 23.9248 385.988C26.0795 384.773 27.156 381.802 28.0825 379.665C30.2867 374.577 31.8596 369.25 34.0445 364.158C34.2716 368.674 33.3727 373.165 33.2123 377.666C33.1331 379.87 32.9211 383.197 34.6325 384.921C36.2628 386.564 38.6659 385.676 39.6768 383.876C41.218 381.132 40.9263 377.229 41.2123 374.158C41.432 371.797 41.6399 369.432 41.9675 367.082C42.106 366.085 42.1664 363.012 43.2257 362.448C44.3935 363.557 43.4691 367.629 43.3295 369.032C43.07 371.625 42.7915 374.336 43.1581 376.934C43.494 379.316 45.5341 382.353 48.1227 380.21C49.7893 378.83 50.2257 376.073 50.4727 374.058C50.7549 371.753 50.7028 369.408 50.9112 367.093C51.2028 363.853 51.6101 360.628 51.9044 357.388C52.0456 355.84 52.6357 354.594 53.1888 353.134C54.1555 350.581 55.0456 347.997 55.7883 345.369C56.5304 342.744 57.2492 339.978 57.2424 337.232C57.2409 336.378 57.1721 335.514 56.9705 334.682C56.8456 334.169 56.2549 333.313 56.2607 332.826C56.2757 331.709 57.3877 329.994 57.806 328.993C60.4825 322.586 63.4789 316.298 66.5971 310.096C73.9857 295.398 82.1415 281.045 87.1867 265.306C89.8705 256.934 90.9919 248.282 93.2185 239.809C95.2367 232.129 97.8804 224.578 100.715 217.164C101.778 221.264 102.84 225.362 103.902 229.461C104.713 232.59 106.069 235.98 106.374 239.204C106.719 242.864 106.324 246.749 106.299 250.422C106.261 256.237 106.222 262.05 106.184 267.866C106.162 271.077 105.729 274.588 106.117 277.782C106.278 279.104 107.054 280.416 107.486 281.693C108.33 284.2 106.821 288.025 106.338 290.654C105.28 296.422 104.302 302.209 103.468 308.016C100.102 331.429 101.539 355.498 103.092 379.028C104.641 402.492 108.343 425.638 114.475 448.338C117.125 458.149 120.067 467.869 120.302 478.106C120.502 486.796 118.537 495.301 116.493 503.686C113.686 515.205 112.275 526.578 113.695 538.418C115.061 549.805 118.384 560.841 121.7 571.781C124.856 582.189 128.051 592.586 131.245 602.982C133.733 611.082 136.305 619.17 138.398 627.382C139.078 630.049 140.269 633.474 139.761 636.208C138.898 640.862 135.812 645.742 133.392 649.737C131.001 653.685 128.263 657.754 124.373 660.362C123.115 661.204 121.728 661.977 121.088 663.43C120.051 665.79 121.949 667.71 123.969 668.642C125.879 669.524 128.029 669.636 130.056 670.12C133.051 670.833 136.112 671.409 139.186 671.639C140.43 671.734 141.694 671.793 142.944 671.715C144.186 671.636 145.422 671.039 146.601 670.961C146.81 670.946 146.904 670.915 146.95 670.884C146.984 670.958 147.089 671.092 147.39 671.338C147.884 671.741 148.168 672.344 148.718 672.744C149.846 673.569 151.254 673.963 152.598 674.262C157.646 675.389 162.18 673.946 164.118 668.851C165.404 672.27 168.124 674.617 171.87 674.705C174.914 674.777 179.776 673.936 180.96 670.666C185.293 672.893 191.332 671.553 195.857 670.625C198.12 670.161 200.51 669.829 202.712 669.205C204.61 668.668 206.922 667.477 207.336 665.356C207.993 661.982 202.914 659.972 200.937 657.999C197.265 654.338 194.508 649.589 192.146 645.015C190.298 641.434 187.953 637.534 188.52 633.392C189.013 629.774 190.066 626.203 191.04 622.698C192.969 615.753 195.133 608.874 197.249 601.985C200.422 591.657 203.598 581.329 206.728 570.986C210.001 560.166 213.248 549.241 214.542 537.974C215.858 526.533 214.568 515.47 211.853 504.337C209.753 495.732 207.684 487.018 207.886 478.097C208.106 468.36 210.808 459.106 213.34 449.772C216.313 438.81 218.924 427.797 220.778 416.586C222.63 405.393 223.808 394.141 224.798 382.844C225.817 371.229 226.256 359.518 226.469 347.865C226.676 336.57 226.944 325.34 225.369 314.126C224.592 308.594 223.606 303.092 222.533 297.61C221.969 294.725 221.374 291.845 220.754 288.97C220.472 287.664 220.184 286.357 219.89 285.052C219.497 283.297 219.497 282.453 219.804 280.696C220.537 276.492 220.081 271.945 220.053 267.677C219.993 259.017 219.93 250.357 219.866 241.697C219.848 238.933 220.46 236.989 221.268 234.294L225.905 218.845L226.873 215.617C229.242 221.669 231.388 227.821 233.308 234.029C235.657 241.628 236.77 249.416 238.673 257.114C242.664 273.261 250.145 288.294 257.881 302.928C261.517 309.809 264.956 316.788 268.158 323.882C269.326 326.47 271.096 329.421 271.682 332.194C271.921 333.325 271.234 334.334 271.058 335.557C270.829 337.152 270.981 338.777 271.24 340.357C272.081 345.492 273.98 350.385 275.814 355.226C276.552 357.168 276.489 359.41 276.709 361.474C277.037 364.56 277.437 367.661 277.54 370.762C277.621 373.218 277.706 375.728 278.656 378.037C279.709 380.605 282.894 382.362 284.485 379.022C285.694 376.484 285.248 372.852 284.972 370.124C284.83 368.728 284.677 367.333 284.601 365.932C284.558 365.136 284.216 363.161 284.838 362.482C285.949 362.972 286.064 366.109 286.206 367.08C286.546 369.412 286.753 371.762 286.972 374.108C287.26 377.197 286.97 381.11 288.51 383.874C289.466 385.59 291.674 386.506 293.342 385.108C295.21 383.542 295.046 380.186 294.989 378.013C294.866 373.393 293.909 368.79 294.141 364.157C296.33 369.248 297.9 374.577 300.105 379.665C301.037 381.816 302.173 385.029 304.464 386.108C306.617 387.122 308.689 385.421 309.11 383.306C309.87 379.508 307.357 374.914 306.056 371.425C304.728 367.864 302.496 363.484 302.508 359.614C305.644 361.92 307.749 366.325 309.892 369.504C311.614 372.058 315.769 379.134 319.586 376.317C323.097 373.726 319.446 368.946 317.872 366.289C316.013 363.153 314.254 359.953 312.545 356.734C310.892 353.622 308.676 350.2 307.886 346.724C310.349 347.318 312.304 350.801 314.329 352.228C316.43 353.706 318.974 354.554 321.493 354.965C323.33 355.266 325.488 355.554 327.014 354.229C329.393 352.168 327.664 349.498 325.505 348.173V348.173ZM296.224 341.713L295.841 341.482L296.036 341.614L296.224 341.713ZM324.784 353.113L324.801 353.109L324.774 353.113H324.784ZM296.036 341.614C295.662 341.381 295.697 341.398 295.841 341.482C291.638 338.816 288.828 335.369 285.816 331.476C287.266 338.68 294.444 345.502 302.209 344.51C300.13 343.777 298.132 342.816 296.224 341.713C296.386 341.813 296.438 341.85 296.036 341.614V341.614ZM25.9784 344.51C33.7429 345.458 40.9289 338.713 42.3721 331.476C41.9533 332.018 41.5617 332.576 41.17 333.137C37.9211 338.556 31.8013 342.462 25.9784 344.51V344.51ZM325.5 348.169L325.505 348.173C326.538 348.806 326.112 348.545 325.5 348.169ZM140.154 77.6476L140.162 77.6597L140.144 77.6223L140.154 77.6476Z" fill="#737373"/>
</svg>
