<svg width="329" height="682" viewBox="0 0 329 682" fill="none" xmlns="http://www.w3.org/2000/svg">
<path d="M168.526 498.364C168.185 504.185 167.22 509.964 166.742 515.778C166.053 524.181 166.134 532.612 165.8 541.03C165.59 546.256 165.584 551.482 165.798 556.708C166.037 562.584 166.772 568.421 167.05 574.292C167.682 587.622 166.228 600.994 164.952 614.245C163.769 602.157 162.481 589.993 162.704 577.829C162.812 571.845 163.565 565.906 163.906 559.933C164.256 553.766 164.329 547.581 164.077 541.408C163.677 531.524 163.832 521.626 162.881 511.769C162.546 508.31 162.081 504.87 161.677 501.42C161.29 498.12 160.832 494.433 161.565 491.146C162.285 487.918 163.645 484.948 164.076 481.606C164.518 478.162 164.432 474.652 164.076 471.204C163.261 463.34 164.172 455.749 164.95 447.912C165.589 453.901 166.762 460.124 166.358 466.16C165.977 471.841 164.644 477.144 165.65 482.877C166.054 485.178 166.757 487.404 167.673 489.55C168.837 492.28 168.697 495.43 168.526 498.364V498.364ZM326.345 348.173C324.156 346.828 325.448 347.621 326.34 348.169C319.356 343.873 314.861 335.865 309.405 329.941C306.789 327.101 303.886 324.356 300.001 323.492C298.776 323.218 295.88 323.593 295.154 322.914C294.618 322.412 294.208 320.918 293.917 320.246C293.422 319.112 292.962 317.964 292.526 316.806C289.406 308.526 287.528 299.812 286.54 291.03C285.942 285.718 285.656 280.426 284.66 275.161C282.944 266.1 280.245 257.24 276.793 248.689C275.433 245.325 274.192 241.272 272.113 238.282C270.528 236.002 269.054 234.057 268.306 231.281C267.184 227.112 267.696 222.268 267.393 217.957C267.074 213.426 266.608 208.906 266.02 204.401C264.882 195.69 263.4 187.002 261.402 178.445C260.918 176.376 261.366 174.377 261.538 172.266C261.729 169.938 261.844 167.604 261.888 165.269C261.973 160.756 261.786 156.226 261.206 151.748C260.148 143.564 255.249 136.217 250.917 129.384C246.202 121.94 238.57 118.922 230.18 117.325C225.765 116.485 221.276 116.058 216.789 115.89C214.613 115.808 212.436 115.79 210.26 115.845C208.941 115.877 208.581 115.768 207.537 114.978C206.662 114.316 205.764 113.682 204.858 113.061C201.189 110.54 197.385 108.21 193.576 105.908C192.549 105.288 191.52 104.672 190.489 104.06C189.974 103.754 188.689 103.332 188.421 102.828C188.296 102.59 188.338 102.065 188.309 101.809C187.876 97.849 187.442 93.8876 187.009 89.9263C186.82 88.2076 186.632 86.4903 186.444 84.7716C186.418 84.5516 186.252 83.9983 186.336 83.7863C186.429 83.5503 187.073 83.2837 187.32 83.1117C188.209 82.493 189.022 81.7743 189.721 80.9463C191.454 78.8916 192.16 76.177 193.02 73.6757C194.232 70.1463 195.321 66.5716 196.286 62.9663C200.448 47.4169 202.496 28.2517 193.512 13.873C189.484 7.42765 183.133 2.97032 175.774 1.13698C172.958 0.434316 165.552 -0.445694 160.104 0.259639C152.766 1.20764 145.25 3.80096 140.06 9.17963C134.446 14.9943 131.853 22.8596 130.769 30.7196C128.612 46.3903 132.578 61.7877 137.802 76.4783C138.377 78.0957 139.004 79.6396 140.125 80.9689C140.688 81.6356 141.325 82.2463 142.02 82.773C142.277 82.9703 143.418 83.549 143.528 83.8236C143.81 84.5463 143.245 86.4023 143.162 87.1436C142.701 91.3583 142.24 95.5716 141.778 99.785C141.69 100.588 141.828 102.104 141.445 102.828C141.177 103.332 139.892 103.754 139.377 104.06C138.346 104.672 137.317 105.288 136.292 105.908C134.357 107.077 132.429 108.258 130.517 109.462C128.66 110.632 126.816 111.82 125.008 113.061C124.202 113.613 123.406 114.174 122.625 114.758C121.44 115.641 121.092 115.882 119.605 115.845C115.081 115.733 110.541 115.909 106.041 116.393C98.0317 117.256 88.6424 118.95 82.5624 124.692C79.6971 127.397 77.7357 131.208 75.7437 134.57C73.5664 138.241 71.4624 142.03 69.9997 146.052C68.5184 150.126 68.2504 154.564 68.0557 158.862C67.8544 163.328 67.9637 167.812 68.3264 172.266C68.4984 174.377 68.9464 176.376 68.4637 178.445C67.9411 180.684 67.4624 182.933 67.0104 185.186C66.1491 189.497 65.3891 193.826 64.7277 198.173C63.3651 207.117 62.4077 216.126 62.0904 225.172C61.9437 229.385 61.5771 233.126 59.0664 236.682C57.5864 238.78 56.4864 240.776 55.4091 243.181C49.2437 256.922 45.1624 271.386 43.7517 286.382C42.9664 294.748 41.7384 302.974 39.2971 311.036C38.7091 312.981 38.0557 314.905 37.3397 316.806C36.9464 317.849 36.5357 318.884 36.0971 319.908C35.7571 320.701 35.3424 322.325 34.7117 322.914C33.9864 323.593 31.0917 323.218 29.8664 323.492C27.8691 323.936 26.0878 324.862 24.4811 326.116C17.8944 331.252 13.6144 338.892 7.70908 344.733C6.40241 346.024 5.02639 347.13 3.52106 348.173C2.28106 349.032 0.890413 350.088 0.841079 351.746C0.754413 354.593 3.78906 355.332 6.02106 355.156C8.69439 354.945 11.4371 354.182 13.7584 352.828C15.2171 351.977 16.3677 350.812 17.5664 349.638C18.5104 348.716 19.7757 347.053 21.1411 346.724C20.4731 349.665 18.6744 352.542 17.2957 355.188C15.5184 358.602 13.6624 361.98 11.7291 365.309C10.2051 367.934 6.89972 371.706 8.28506 374.877C10.7997 380.63 16.3144 373.41 18.0557 371.049C19.5331 369.048 20.8344 366.914 22.2571 364.873C23.4811 363.118 24.7651 360.904 26.5184 359.614C26.5251 361.493 25.7237 363.476 25.1544 365.238C24.4464 367.42 23.6624 369.577 22.8597 371.728C21.5851 375.136 19.0171 379.826 19.9571 383.53C20.4957 385.654 22.6917 387.157 24.7637 385.988C26.9184 384.773 27.9957 381.802 28.9211 379.665C31.1264 374.577 32.6984 369.25 34.8837 364.158C35.1104 368.674 34.2117 373.165 34.0517 377.666C33.9717 379.87 33.7597 383.197 35.4717 384.921C37.1024 386.564 39.5051 385.676 40.5158 383.876C42.0571 381.132 41.7651 377.229 42.0517 374.158C42.2717 371.797 42.4784 369.432 42.8064 367.082C42.9451 366.085 43.0051 363.012 44.0651 362.448C45.2331 363.557 44.3077 367.629 44.1677 369.032C43.9091 371.625 43.6304 374.336 43.9971 376.934C44.3331 379.316 46.3731 382.353 48.9624 380.21C50.6291 378.83 51.0651 376.073 51.3117 374.058C51.5944 371.753 51.5424 369.408 51.7504 367.093C52.0424 363.853 52.4491 360.628 52.7437 357.388C52.8851 355.84 53.4744 354.594 54.0277 353.134C54.9944 350.581 55.8851 347.997 56.6277 345.369C57.3691 342.744 58.0877 339.978 58.0824 337.232C58.0797 336.378 58.0117 335.514 57.8091 334.682C57.6851 334.169 57.0944 333.313 57.0997 332.826C57.1144 331.709 58.2264 329.994 58.6451 328.993C61.3224 322.586 64.3184 316.298 67.4357 310.096C74.8251 295.398 82.9811 281.045 88.0264 265.306C90.7104 256.934 91.8304 248.282 94.0584 239.809C96.0757 232.129 98.7197 224.578 101.554 217.164C102.617 221.264 103.68 225.362 104.742 229.461C105.553 232.59 106.909 235.98 107.213 239.204C107.558 242.864 107.162 246.749 107.138 250.422C107.1 256.237 107.061 262.05 107.022 267.866C107.001 271.077 106.569 274.588 106.957 277.782C107.117 279.104 107.893 280.416 108.324 281.693C109.17 284.2 107.66 288.025 107.178 290.654C106.118 296.422 105.141 302.209 104.306 308.016C100.941 331.429 102.377 355.498 103.932 379.028C105.481 402.492 109.182 425.638 115.313 448.338C117.965 458.149 120.906 467.869 121.141 478.106C121.342 486.796 119.376 495.301 117.332 503.686C114.525 515.205 113.113 526.578 114.533 538.418C115.9 549.805 119.222 560.841 122.54 571.781C125.694 582.189 128.889 592.586 132.084 602.982C134.573 611.082 137.142 619.17 139.238 627.382C139.917 630.049 141.108 633.474 140.601 636.208C140.192 638.411 137.217 647.473 136.936 648.787C136.654 650.101 136.202 651.637 135.261 653.163C134.305 654.684 132.79 656.209 131.033 657.905C130.158 658.768 129.248 659.668 128.305 660.598C127.846 661.073 127.38 661.554 126.908 662.042C126.42 662.561 125.956 663.127 125.472 663.682C124.588 664.881 123.662 666.139 123.138 667.754C122.592 669.311 122.432 671.303 123.3 673.066C125.185 676.606 129.454 677.374 132.573 677.32C134.117 677.313 135.629 677.463 137.012 677.85C138.374 678.227 139.662 679.078 141.33 679.773C144.629 681.122 148.125 681.266 151.318 681.346C154.604 681.305 158.065 681.141 161.104 679.428C161.802 678.918 162.557 678.486 163.174 677.898C163.714 677.236 164.42 676.689 164.778 675.923L164.918 675.673L165.06 675.923C165.418 676.689 166.125 677.236 166.665 677.898C167.281 678.486 168.036 678.918 168.736 679.428C171.774 681.141 175.234 681.305 178.52 681.346C181.714 681.266 185.209 681.122 188.509 679.773C190.177 679.078 191.464 678.227 192.826 677.85C194.209 677.463 195.722 677.313 197.265 677.32C200.385 677.374 204.653 676.606 206.54 673.066C207.408 671.303 207.246 669.311 206.7 667.754C206.177 666.139 205.25 664.881 204.368 663.682C203.882 663.127 203.418 662.561 202.932 662.042C202.458 661.554 201.993 661.073 201.534 660.598C200.59 659.668 199.68 658.768 198.805 657.905C197.048 656.209 195.534 654.684 194.578 653.163C193.894 652.057 191.55 644.577 191.55 644.577C190.285 640.758 189.017 635.892 189.358 633.392C189.852 629.774 190.906 626.203 191.878 622.698C193.806 615.753 195.972 608.874 198.088 601.985C201.261 591.657 204.437 581.329 207.566 570.986C210.841 560.166 214.085 549.241 215.382 537.974C216.697 526.533 215.408 515.47 212.692 504.337C210.592 495.732 208.522 487.018 208.725 478.097C208.946 468.36 211.648 459.106 214.18 449.772C217.152 438.81 219.762 427.797 221.618 416.586C223.47 405.393 224.646 394.141 225.638 382.844C226.656 371.229 227.094 359.518 227.308 347.865C227.516 336.57 227.782 325.34 226.208 314.126C225.43 308.594 224.445 303.092 223.372 297.61C222.808 294.725 222.213 291.845 221.593 288.97C221.31 287.664 221.024 286.357 220.73 285.052C220.336 283.297 220.336 282.453 220.641 280.696C221.376 276.492 220.92 271.945 220.892 267.677C220.833 259.017 220.769 250.357 220.706 241.697C220.686 238.933 221.3 236.989 222.108 234.294L226.744 218.845L227.713 215.617C230.081 221.669 232.226 227.821 234.146 234.029C236.496 241.628 237.609 249.416 239.512 257.114C243.502 273.261 250.984 288.294 258.72 302.928C262.357 309.809 265.796 316.788 268.997 323.882C270.165 326.47 271.934 329.421 272.521 332.194C272.76 333.325 272.074 334.334 271.898 335.557C271.668 337.152 271.82 338.777 272.08 340.357C272.92 345.492 274.818 350.385 276.653 355.226C277.39 357.168 277.328 359.41 277.548 361.474C277.877 364.56 278.276 367.661 278.378 370.762C278.461 373.218 278.545 375.728 279.494 378.037C280.549 380.605 283.733 382.362 285.324 379.022C286.532 376.484 286.086 372.852 285.81 370.124C285.669 368.728 285.517 367.333 285.44 365.932C285.397 365.136 285.054 363.161 285.678 362.482C286.789 362.972 286.904 366.109 287.045 367.08C287.385 369.412 287.592 371.762 287.81 374.108C288.098 377.197 287.809 381.11 289.35 383.874C290.305 385.59 292.514 386.506 294.181 385.108C296.049 383.542 295.885 380.186 295.828 378.013C295.705 373.393 294.748 368.79 294.98 364.157C297.169 369.248 298.74 374.577 300.944 379.665C301.876 381.816 303.013 385.029 305.302 386.108C307.457 387.122 309.528 385.421 309.95 383.306C310.709 379.508 308.196 374.914 306.894 371.425C305.568 367.864 303.334 363.484 303.348 359.614C306.482 361.92 308.586 366.325 310.73 369.504C312.454 372.058 316.608 379.134 320.425 376.317C323.936 373.726 320.286 368.946 318.71 366.289C316.852 363.153 315.093 359.953 313.384 356.734C311.732 353.622 309.514 350.2 308.726 346.724C311.189 347.318 313.142 350.801 315.168 352.228C317.269 353.706 319.813 354.554 322.332 354.965C324.17 355.266 326.326 355.554 327.854 354.229C330.232 352.168 328.502 349.498 326.345 348.173" fill="white"/>
<path d="M325.64 353.109C325.736 353.092 325.768 353.086 325.624 353.113C324.584 353.297 325.321 353.165 325.613 353.113C323.685 353.452 321.313 352.76 319.525 352.125C316.317 350.985 314.422 348.662 311.948 346.462C310.838 345.476 307.152 343.053 306.644 346.009C306.469 347.037 307.186 348.452 307.546 349.369C310.108 355.86 313.784 362.042 317.361 368.02C318.252 369.513 319.648 371.206 319.773 372.992C320.061 377.113 315.916 373.008 315.041 371.908C311.638 367.622 309.217 362.22 305.148 358.509C303.417 356.93 301.305 357.061 301.33 359.729C301.348 361.462 301.944 363.24 302.446 364.876C303.397 367.976 304.552 371.009 305.686 374.044C306.492 376.197 307.438 378.406 307.849 380.674C308.193 382.578 307.352 385.856 305.24 383.386C303.612 381.482 302.724 378.692 301.761 376.408C300.474 373.356 299.484 370.173 298.328 367.07C297.833 365.742 296.778 360.862 294.79 360.778C292.305 360.672 292.905 365.792 292.957 367.102C293.082 370.204 293.481 373.281 293.696 376.376C293.8 377.866 294.453 382.408 292.906 383.513C290.484 385.241 290.218 377.908 290.138 376.992C289.976 375.092 289.792 373.193 289.602 371.296C289.444 369.688 288.805 357.945 284.613 360.776C282.569 362.157 283.394 366.462 283.578 368.441C283.794 370.766 284.04 373.058 283.936 375.398C283.869 376.901 283.002 380.633 281.554 377.629C280.298 375.021 280.536 371.984 280.345 369.184C280.112 365.76 279.694 362.349 279.341 358.937C279.208 357.664 279.232 356.365 278.844 355.164C277.484 350.944 275.673 346.936 274.632 342.596C273.778 339.046 275.396 335.394 274.029 331.274C266.02 308.196 252.34 287.589 244.694 264.377C242.697 258.312 241.428 252.152 240.098 245.92C238.768 239.682 236.776 233.586 234.553 227.614C232.744 222.752 230.581 218.053 228.614 213.257C228.153 212.133 228.422 211.332 228.609 210.1C228.693 209.55 233.178 177.141 232.066 176.786C230.954 176.43 225.721 213.16 225.45 214.736L225.4 214.574C223.034 221.889 220.67 229.205 218.305 236.52C218.146 237.01 218.037 237.576 217.813 238.041C217.685 238.308 217.297 240.781 217.304 241.605C217.344 246.34 217.385 251.076 217.425 255.81C217.478 261.982 217.756 268.153 217.732 274.325C217.728 275.258 217.74 276.192 217.72 277.126C217.684 278.916 217.05 280.574 216.924 282.309C216.798 284.034 217.59 286.061 217.954 287.784C218.484 290.289 218.993 292.8 219.481 295.314C221.377 305.085 223.266 315.041 223.73 325.001C224.194 334.962 223.67 345.101 223.285 355.061C222.9 365.01 222.428 374.954 221.533 384.87C219.712 405.06 216.637 424.946 211.369 444.54C208.834 453.977 205.784 463.385 204.906 473.166C204.421 478.578 204.686 484.164 205.469 489.524C206.901 499.333 210.256 508.741 211.474 518.585C212.684 528.34 211.817 538.044 209.889 547.642C207.196 561.046 202.784 574.133 198.878 587.229C195.952 597.045 192.958 606.848 190.144 616.697C188.98 620.769 187.81 624.861 186.932 629.005C186.414 631.453 185.693 634.142 186.14 636.641C186.688 639.692 191.769 653.149 192.554 654.427C193.713 656.273 195.384 657.934 197.12 659.627C197.976 660.478 198.868 661.365 199.792 662.284C200.246 662.756 200.706 663.237 201.176 663.725C201.614 664.196 202.021 664.699 202.456 665.196C204.044 667.185 205.352 669.896 204.329 671.96C203.816 672.963 202.757 673.748 201.492 674.211C200.213 674.693 198.861 674.802 197.241 674.813C195.589 674.805 193.857 674.946 192.118 675.426C190.348 675.93 188.878 676.896 187.538 677.422C184.781 678.544 181.592 679.161 178.428 679.218C175.378 679.178 172.68 678.605 170.138 677.675C166.664 676.408 164.326 667.253 166.377 656.057C166.472 655.537 166.045 647.992 166.045 647.992C166.046 643.93 166.029 639.87 166.07 635.808C166.23 619.224 169.157 602.813 169.806 586.241C170.196 576.292 169.044 566.521 168.694 556.597C168.449 549.666 168.724 542.766 169.028 535.845C169.412 527.101 169.426 518.412 170.342 509.692C170.858 504.781 171.642 499.833 171.516 494.881C171.473 493.269 171.452 491.438 170.98 489.888C170.349 487.805 169.241 485.924 168.728 483.772C167.576 478.932 168.054 474.045 168.773 469.185C169.485 464.369 168.928 459.544 168.376 454.74C167.285 445.232 166.453 435.824 166.244 426.252C165.948 412.805 166.276 399.341 166.105 385.889C166.042 380.954 165.98 376.018 165.917 371.082L165.836 364.638C165.825 363.812 165.452 361.981 165.776 361.166C166.33 361.757 167.02 362.404 167.874 363.069C168.797 363.785 169.892 364.508 171.142 365.192C171.781 365.506 172.445 365.833 173.132 366.172C173.841 366.452 174.574 366.741 175.328 367.037C176.097 367.281 176.888 367.53 177.696 367.786C178.512 368.001 179.354 368.18 180.208 368.373C181.928 368.676 183.692 369.006 185.554 369.108C187.476 369.296 189.076 369.249 191.017 369.284C192.874 369.172 194.728 369.088 196.546 368.764C197.457 368.656 198.356 368.486 199.23 368.232C200.106 368.002 200.977 367.817 201.805 367.494C205.156 366.401 208.072 364.693 210.162 362.814C211.222 361.892 212.09 360.936 212.756 360.018C213.456 359.132 213.928 358.261 214.289 357.548C215 356.105 215.156 355.204 215.156 355.204C215.156 355.204 214.721 356.005 213.708 357.165C213.201 357.742 212.562 358.416 211.757 359.096C210.972 359.792 210.005 360.478 208.921 361.146C206.74 362.472 203.984 363.589 200.894 364.265C200.138 364.482 199.328 364.568 198.525 364.694C197.724 364.834 196.905 364.936 196.068 364.988C194.414 365.192 192.697 365.146 190.997 365.176C189.381 365.113 187.409 365.11 185.844 364.906C184.205 364.777 182.557 364.556 180.986 364.297C180.208 364.141 179.442 363.989 178.693 363.84C177.956 363.652 177.234 363.469 176.532 363.292C175.152 362.866 173.864 362.434 172.701 361.962C171.562 361.453 170.526 360.964 169.652 360.457C168.792 359.937 168.044 359.465 167.482 359.024C167.218 358.824 166.994 358.642 166.794 358.477C166.721 358.224 166.322 352.834 166.328 350.31C166.289 347.788 166.097 345.094 165.997 342.404C165.782 337.02 165.617 331.634 165.382 327.596C165.177 323.558 165.04 320.865 165.04 320.865H164.766C164.766 320.865 164.63 323.558 164.424 327.596C164.19 331.634 164.025 337.02 163.809 342.404C163.709 345.094 163.518 347.788 163.478 350.31C163.484 352.834 162.928 358.59 162.357 359.024C161.794 359.465 161.048 359.937 160.186 360.457C159.312 360.964 158.277 361.453 157.138 361.962C155.974 362.434 154.686 362.866 153.306 363.292C152.604 363.469 151.882 363.652 151.145 363.84C150.397 363.989 149.632 364.141 148.853 364.297C147.282 364.556 145.633 364.777 143.994 364.906C142.43 365.11 140.457 365.113 138.841 365.176C137.14 365.146 135.425 365.192 133.77 364.988C132.933 364.936 132.114 364.834 131.314 364.694C130.51 364.568 129.7 364.482 128.944 364.265C125.854 363.589 123.098 362.472 120.917 361.146C119.834 360.478 118.868 359.792 118.082 359.096C117.276 358.416 116.637 357.742 116.132 357.165C115.117 356.005 114.682 355.204 114.682 355.204C114.682 355.204 114.838 356.105 115.549 357.548C115.91 358.261 116.382 359.132 117.084 360.018C117.748 360.936 118.616 361.892 119.676 362.814C121.766 364.693 124.682 366.401 128.033 367.494C128.861 367.817 129.732 368.002 130.608 368.232C131.482 368.486 132.381 368.656 133.293 368.764C135.112 369.088 136.964 369.172 138.821 369.284C140.764 369.249 142.361 369.296 144.285 369.108C146.146 369.006 147.912 368.676 149.63 368.373C150.484 368.18 151.328 368.001 152.142 367.786C152.95 367.53 153.741 367.281 154.51 367.037C155.264 366.741 155.997 366.452 156.706 366.172C157.394 365.833 158.058 365.506 158.694 365.192C159.948 364.508 161.041 363.785 161.964 363.069C162.856 362.374 163.574 361.7 164.138 361.089C164.189 361.557 164.053 362.402 164.05 362.657C164.032 364.073 164.014 365.489 163.996 366.905C163.901 374.452 163.805 381.997 163.709 389.542C163.556 401.626 163.878 413.721 163.628 425.8C163.465 433.634 163.018 441.398 162.181 449.19C161.752 453.182 161.245 457.173 160.977 461.178C160.713 465.166 161.176 468.969 161.449 472.934C161.722 476.896 161.576 480.894 160.598 484.754C159.844 487.741 158.614 490.214 158.405 493.316C157.853 501.473 159.86 509.836 160.33 517.98C160.697 524.306 160.592 530.644 160.884 536.97C161.142 542.59 161.361 548.2 161.242 553.828C161.07 561.966 159.977 570.056 159.916 578.193C159.852 586.504 160.461 594.813 161.284 603.077C162.098 611.273 163.316 619.47 163.838 627.689C164.061 631.193 163.922 634.729 163.902 638.237C163.882 641.498 163.898 644.76 163.902 648.021C163.902 648.021 163.417 654.344 163.386 656.057C163.386 656.057 166.68 673.741 160.138 677.675C157.818 679.072 154.385 679.178 151.336 679.218C148.172 679.161 145.058 678.544 142.3 677.422C140.96 676.896 139.49 675.93 137.72 675.426C135.981 674.946 134.249 674.805 132.597 674.813C130.977 674.802 129.626 674.693 128.346 674.211C127.081 673.748 126.022 672.963 125.509 671.96C124.488 669.896 125.794 667.185 127.382 665.196C127.818 664.699 128.224 664.196 128.664 663.725C129.132 663.237 129.593 662.756 130.046 662.284C130.97 661.365 131.862 660.478 132.718 659.627C134.454 657.934 136.126 656.273 137.284 654.427C138.042 653.192 142.972 640.061 143.645 637.017C144.082 635.046 143.713 632.953 143.345 630.999C141.352 620.423 137.81 610.116 134.74 599.813C132.75 593.144 130.746 586.48 128.773 579.805C124.07 563.892 118.377 547.621 117.841 530.884C117.564 522.216 118.918 513.832 120.986 505.442C122.926 497.572 124.824 489.71 125.1 481.574C125.56 468.008 121.34 455.257 117.909 442.286C113.449 425.433 110.49 408.193 108.868 390.837C107.254 373.594 106.452 356.317 106.188 339.004C106.056 330.309 106.134 321.797 107.168 313.149C108.214 304.38 109.649 295.653 111.244 286.968C111.493 285.604 112.161 283.865 112.069 282.489C111.956 280.792 110.889 278.692 110.216 277.15C110.293 277.374 110.429 277.59 110.529 277.805C110.553 267.576 110.577 257.345 110.6 247.114C110.605 244.89 110.61 242.666 110.616 240.442C110.617 240.012 110.31 238.644 110.188 238.35C109.449 236.61 109.098 234.588 108.574 232.776C107.66 229.616 106.745 226.454 105.83 223.294C105.06 220.629 104.184 217.972 103.512 215.28C103.045 213.409 99.1677 176.629 97.8011 176.786C96.4317 176.944 100.629 210.809 100.75 212.138C100.918 213.965 100.6 214.704 99.8397 216.458C98.8811 218.668 97.9557 220.893 97.0557 223.128C94.7037 228.962 92.6291 234.92 90.9597 240.986C89.2971 247.032 88.4371 253.257 86.7277 259.296C83.1571 271.921 77.5651 283.949 71.6917 295.645C65.8517 307.274 60.1091 318.958 55.8357 331.273C54.7251 334.712 56.1277 335.958 55.9971 338.09C55.6571 343.593 53.4144 349.162 51.3971 354.238C50.9037 355.477 50.7917 356.274 50.6584 357.637C50.2851 361.485 49.7851 365.322 49.5224 369.18C49.4077 370.86 49.4677 372.553 49.2197 374.222C49.0557 375.321 48.7931 377.916 47.7144 378.594C45.6371 379.905 45.9077 373.962 45.9264 372.985C45.9877 369.752 46.8811 366.432 46.3957 363.204C46.0704 361.03 43.9624 359.3 42.3317 361.474C40.7331 363.606 40.6904 367.185 40.4197 369.709C40.1611 372.133 39.9357 374.565 39.7277 376.993C39.6637 377.737 38.8251 386.278 36.6704 383.082C36.0024 382.092 36.0997 380.37 36.0837 379.246C36.0544 377.285 36.2624 375.345 36.4437 373.393C36.7304 370.302 37.1197 367.118 36.9117 364.009C36.8424 362.992 36.7717 361.374 35.6611 360.898C33.3251 359.894 31.9771 365.897 31.5371 367.074C30.2624 370.494 29.1584 373.99 27.6931 377.333C27.0531 378.794 25.3344 384.533 23.2131 384.382C19.3117 384.105 26.0571 368.974 26.5797 367.446C27.1837 365.678 30.2477 359.002 27.6424 357.542C26.3117 356.797 24.9037 358.257 24.0837 359.13C21.6704 361.704 19.7957 364.824 17.8451 367.742C16.9931 369.018 16.1011 370.253 15.1637 371.469C14.3531 372.522 13.0864 374.561 11.6437 374.82C8.08242 375.458 11.7851 369.22 12.3224 368.33C13.9904 365.565 15.5717 362.742 17.1197 359.908C19.2171 356.069 21.5744 352.076 22.8611 347.868C23.3837 346.165 23.2691 344.214 20.7731 344.685C17.4824 345.304 15.4411 349.516 12.6077 351.109C10.4744 352.308 7.19973 353.473 4.6904 353.154C-0.0429374 352.553 6.5184 348.598 7.59974 347.646C14.1144 341.917 18.3891 334.04 24.9544 328.381C27.8357 325.896 31.1704 325.298 34.9904 325.376C35.3037 325.381 36.3304 324.39 36.3037 323.505C40.9957 314.396 43.7117 304.154 45.2357 294.062C46.2624 287.26 46.6224 280.452 48.0557 273.705C50.1971 263.618 53.6851 253.784 57.9811 244.42C58.8277 242.574 59.5931 240.653 60.8891 239.09C62.4424 237.218 63.5624 235.049 64.3597 232.76C64.9904 230.95 65.4864 229.544 65.5011 227.774C65.5237 225.128 65.6037 222.482 65.7384 219.84C66.2797 209.258 67.7877 198.718 69.6317 188.292C70.0917 185.686 70.5931 183.09 71.1531 180.505C71.5824 178.517 71.9171 177.25 71.6837 175.29C71.0717 170.149 70.8464 164.937 71.0211 159.762C71.1864 154.857 71.5197 149.973 73.4184 145.401C75.3731 140.698 78.0304 136.29 80.7251 131.985C83.3024 127.869 85.9957 124.97 90.4944 122.94C94.9917 120.909 99.9264 119.866 104.793 119.201C116.321 117.625 121.901 118.656 124.389 116.484C127.194 114.392 130.137 112.469 133.069 110.56C134.805 109.428 136.557 108.314 138.313 107.212C139.709 106.334 141.845 105.532 142.94 104.344C143.512 103.724 143.462 103.294 143.544 102.386C144.076 96.5249 144.605 90.6636 145.136 84.8022C146.386 82.0356 142.962 81.6609 141.001 77.6596C141.165 77.9943 141.513 78.7102 140.994 77.6476C140.896 77.4422 140.92 77.4942 140.982 77.6222C139.854 75.2729 139.152 72.5249 138.376 70.0436C136.938 65.4383 135.672 60.7743 134.685 56.0516C132.83 47.1903 132.346 38.2849 133.917 29.3343C135.264 21.6556 138.338 14.0249 144.621 9.08226C150.362 4.56493 157.713 3.14894 164.861 2.95694C171.578 2.77694 178.865 4.4316 184.362 8.3796C190.984 13.1343 194.35 20.7663 195.828 28.5769C197.51 37.4756 197.16 46.4183 195.378 55.2649C193.909 62.5663 192.057 70.1916 189.153 77.0862C187.417 81.2102 183.948 81.6503 184.728 84.7649C185.256 90.6143 185.786 96.4636 186.314 102.313C186.397 103.216 186.348 103.729 186.925 104.344C188.038 105.525 190.172 106.345 191.553 107.212C193.089 108.177 194.621 109.152 196.145 110.137C199.301 112.176 202.465 114.238 205.477 116.484C206.425 117.632 208.22 118.314 217.71 118.494C226.762 118.664 238.221 120.185 245.196 126.646C248.665 129.86 251.041 134.89 253.294 138.992C255.572 143.137 257.674 147.4 258.254 152.14C258.88 157.246 259.002 162.405 258.776 167.541C258.662 170.13 258.46 172.717 258.15 175.29C257.914 177.261 258.154 178.521 258.592 180.505C260.872 190.841 262.598 201.378 263.606 211.914C264.11 217.186 264.401 222.478 264.449 227.774C264.481 231.47 266.593 236.07 269.009 239.09C271.756 242.526 273.33 247.493 274.954 251.565C276.896 256.437 278.605 261.408 280.018 266.46C282.201 274.268 283.173 282.07 284.094 290.076C285.413 301.506 288.27 313.23 293.564 323.505C294.368 326.677 300.518 324.788 304.453 327.993C309.416 332.037 313.073 337.625 317.237 342.43C319.236 344.738 321.328 347.04 323.772 348.886C324.598 349.513 329.234 352.437 325.64 353.109V353.109ZM164.952 614.245C163.769 602.157 162.481 589.993 162.704 577.829C162.812 571.845 163.565 565.906 163.905 559.933C164.256 553.766 164.329 547.581 164.077 541.408C163.677 531.524 163.832 521.626 162.881 511.769C162.546 508.31 162.081 504.87 161.676 501.42C161.29 498.12 160.832 494.433 161.565 491.146C162.285 487.918 163.645 484.948 164.076 481.606C164.518 478.162 164.432 474.652 164.076 471.204C163.261 463.34 164.172 455.749 164.95 447.912C165.589 453.901 166.762 460.124 166.358 466.16C165.977 471.841 164.644 477.144 165.65 482.877C166.054 485.178 166.757 487.404 167.673 489.55C168.837 492.28 168.697 495.43 168.526 498.364C168.185 504.185 167.22 509.964 166.742 515.778C166.053 524.181 166.134 532.612 165.8 541.03C165.59 546.256 165.584 551.482 165.798 556.708C166.037 562.584 166.772 568.421 167.05 574.292C167.682 587.622 166.228 600.994 164.952 614.245V614.245ZM326.345 348.173C324.156 346.828 325.448 347.621 326.34 348.169C319.356 343.873 314.861 335.865 309.405 329.941C306.789 327.101 303.886 324.356 300.001 323.492C298.776 323.218 295.88 323.593 295.154 322.914C294.618 322.412 294.208 320.918 293.917 320.246C293.422 319.112 292.962 317.964 292.526 316.806C289.406 308.526 287.528 299.812 286.54 291.03C285.942 285.718 285.656 280.426 284.658 275.161C282.944 266.1 280.245 257.24 276.793 248.689C275.433 245.325 274.192 241.272 272.113 238.282C270.528 236.002 269.054 234.057 268.306 231.281C267.184 227.112 267.696 222.268 267.393 217.957C267.074 213.426 266.608 208.906 266.02 204.401C264.882 195.69 263.4 187.002 261.402 178.445C260.918 176.376 261.366 174.377 261.538 172.266C261.729 169.938 261.844 167.604 261.888 165.269C261.973 160.756 261.786 156.226 261.206 151.748C260.148 143.564 255.248 136.217 250.917 129.384C246.202 121.94 238.57 118.922 230.178 117.325C225.765 116.485 221.276 116.058 216.788 115.89C214.613 115.808 212.436 115.79 210.26 115.845C208.941 115.877 208.581 115.768 207.537 114.978C206.662 114.316 205.764 113.682 204.858 113.061C201.189 110.54 197.385 108.21 193.576 105.908C192.548 105.288 191.52 104.672 190.489 104.06C189.973 103.754 188.689 103.332 188.421 102.828C188.296 102.59 188.338 102.065 188.309 101.809C187.876 97.849 187.442 93.8876 187.008 89.9263C186.82 88.2076 186.632 86.4902 186.444 84.7716C186.418 84.5516 186.252 83.9982 186.336 83.7862C186.428 83.5502 187.073 83.2836 187.32 83.1116C188.209 82.493 189.022 81.7743 189.721 80.9463C191.454 78.8916 192.16 76.177 193.02 73.6756C194.232 70.1463 195.321 66.5716 196.286 62.9662C200.448 47.4169 202.496 28.2516 193.512 13.873C189.484 7.42762 183.133 2.97029 175.773 1.13695C172.958 0.434286 165.552 -0.445724 160.104 0.259609C152.766 1.20761 145.25 3.80093 140.06 9.1796C134.446 14.9943 131.853 22.8596 130.769 30.7196C128.612 46.3902 132.578 61.7876 137.802 76.4783C138.377 78.0956 139.004 79.6396 140.125 80.9689C140.688 81.6356 141.325 82.2463 142.02 82.773C142.277 82.9703 143.418 83.5489 143.528 83.8236C143.81 84.5463 143.245 86.4023 143.162 87.1436C142.701 91.3583 142.24 95.5716 141.778 99.7849C141.69 100.588 141.828 102.104 141.444 102.828C141.177 103.332 139.892 103.754 139.377 104.06C138.346 104.672 137.317 105.288 136.292 105.908C134.357 107.077 132.429 108.258 130.517 109.462C128.66 110.632 126.816 111.82 125.008 113.061C124.202 113.613 123.406 114.174 122.625 114.758C121.44 115.641 121.092 115.882 119.605 115.845C115.081 115.733 110.541 115.909 106.041 116.393C98.0317 117.256 88.6424 118.95 82.5611 124.692C79.6971 127.397 77.7357 131.208 75.7437 134.57C73.5664 138.241 71.4624 142.03 69.9997 146.052C68.5184 150.126 68.2504 154.564 68.0557 158.862C67.8544 163.328 67.9637 167.812 68.3264 172.266C68.4984 174.377 68.9464 176.376 68.4637 178.445C67.9411 180.684 67.4624 182.933 67.0104 185.186C66.1491 189.497 65.3891 193.826 64.7277 198.173C63.3651 207.117 62.4077 216.126 62.0904 225.172C61.9437 229.385 61.5757 233.126 59.0664 236.682C57.5864 238.78 56.4864 240.776 55.4077 243.181C49.2437 256.922 45.1624 271.386 43.7517 286.382C42.9651 294.748 41.7384 302.974 39.2971 311.036C38.7091 312.981 38.0557 314.905 37.3397 316.806C36.9464 317.849 36.5357 318.884 36.0971 319.908C35.7571 320.701 35.3424 322.325 34.7117 322.914C33.9864 323.593 31.0917 323.218 29.8664 323.492C27.8691 323.936 26.0878 324.862 24.4811 326.116C17.8944 331.252 13.6144 338.892 7.70908 344.733C6.40241 346.024 5.02639 347.13 3.52106 348.173C2.28106 349.032 0.890413 350.088 0.841079 351.746C0.754413 354.593 3.78906 355.332 6.02106 355.156C8.69439 354.945 11.4357 354.182 13.7584 352.828C15.2171 351.977 16.3677 350.812 17.5664 349.638C18.5104 348.716 19.7757 347.053 21.1411 346.724C20.4731 349.665 18.6744 352.542 17.2957 355.188C15.5171 358.602 13.6624 361.98 11.7291 365.309C10.2051 367.934 6.89972 371.706 8.28506 374.877C10.7997 380.63 16.3144 373.41 18.0557 371.049C19.5331 369.048 20.8344 366.914 22.2571 364.873C23.4811 363.118 24.7651 360.904 26.5171 359.614C26.5251 361.493 25.7237 363.476 25.1544 365.238C24.4464 367.42 23.6624 369.577 22.8597 371.728C21.5851 375.136 19.0171 379.826 19.9571 383.53C20.4957 385.654 22.6917 387.157 24.7637 385.988C26.9184 384.773 27.9957 381.802 28.9211 379.665C31.1264 374.577 32.6984 369.25 34.8837 364.158C35.1104 368.674 34.2117 373.165 34.0504 377.666C33.9717 379.87 33.7597 383.197 35.4717 384.921C37.1024 386.564 39.5051 385.676 40.5158 383.876C42.0571 381.132 41.7651 377.229 42.0517 374.158C42.2717 371.797 42.4784 369.432 42.8051 367.082C42.9451 366.085 43.0051 363.012 44.0651 362.448C45.2317 363.557 44.3077 367.629 44.1677 369.032C43.9091 371.625 43.6304 374.336 43.9971 376.934C44.3331 379.316 46.3731 382.353 48.9624 380.21C50.6291 378.83 51.0651 376.073 51.3117 374.058C51.5944 371.753 51.5424 369.408 51.7504 367.093C52.0424 363.853 52.4491 360.628 52.7437 357.388C52.8851 355.84 53.4744 354.594 54.0277 353.134C54.9944 350.581 55.8851 347.997 56.6277 345.369C57.3691 342.744 58.0877 339.978 58.0824 337.232C58.0797 336.378 58.0117 335.514 57.8091 334.682C57.6851 334.169 57.0931 333.313 57.0997 332.826C57.1144 331.709 58.2264 329.994 58.6451 328.993C61.3224 322.586 64.3171 316.298 67.4357 310.096C74.8237 295.398 82.9811 281.045 88.0264 265.306C90.7091 256.934 91.8304 248.282 94.0571 239.809C96.0757 232.129 98.7197 224.578 101.554 217.164C102.617 221.264 103.68 225.362 104.742 229.461C105.553 232.59 106.909 235.98 107.213 239.204C107.558 242.864 107.162 246.749 107.138 250.422C107.1 256.237 107.061 262.05 107.022 267.866C107.001 271.077 106.569 274.588 106.957 277.782C107.117 279.104 107.893 280.416 108.324 281.693C109.17 284.2 107.66 288.025 107.178 290.654C106.118 296.422 105.141 302.209 104.306 308.016C100.941 331.429 102.377 355.498 103.932 379.028C105.481 402.492 109.182 425.638 115.313 448.338C117.965 458.149 120.906 467.869 121.141 478.106C121.342 486.796 119.376 495.301 117.332 503.686C114.525 515.205 113.113 526.578 114.533 538.418C115.9 549.805 119.222 560.841 122.54 571.781C125.694 582.189 128.889 592.586 132.084 602.982C134.573 611.082 137.142 619.17 139.238 627.382C139.917 630.049 141.108 633.474 140.601 636.208C140.192 638.411 137.217 647.473 136.936 648.787C136.654 650.101 136.202 651.637 135.261 653.163C134.305 654.684 132.79 656.209 131.033 657.905C130.158 658.768 129.248 659.668 128.305 660.598C127.846 661.073 127.38 661.554 126.908 662.042C126.42 662.561 125.956 663.127 125.472 663.682C124.588 664.881 123.661 666.139 123.138 667.754C122.592 669.311 122.432 671.302 123.3 673.066C125.185 676.606 129.454 677.374 132.573 677.32C134.117 677.313 135.629 677.463 137.012 677.85C138.374 678.226 139.662 679.078 141.33 679.773C144.629 681.122 148.125 681.266 151.318 681.346C154.604 681.305 158.065 681.141 161.104 679.427C161.802 678.918 162.557 678.486 163.174 677.898C163.714 677.236 164.418 676.689 164.778 675.923L164.918 675.673L165.06 675.923C165.418 676.689 166.125 677.236 166.665 677.898C167.281 678.486 168.036 678.918 168.734 679.427C171.774 681.141 175.234 681.305 178.52 681.346C181.713 681.266 185.209 681.122 188.508 679.773C190.177 679.078 191.464 678.226 192.826 677.85C194.209 677.463 195.722 677.313 197.265 677.32C200.385 677.374 204.653 676.606 206.54 673.066C207.408 671.302 207.246 669.311 206.7 667.754C206.177 666.139 205.25 664.881 204.368 663.682C203.882 663.127 203.418 662.561 202.932 662.042C202.458 661.554 201.993 661.073 201.534 660.598C200.59 659.668 199.68 658.768 198.805 657.905C197.048 656.209 195.534 654.684 194.578 653.163C193.894 652.057 191.55 644.577 191.55 644.577C190.285 640.758 189.017 635.892 189.358 633.392C189.852 629.774 190.906 626.202 191.878 622.698C193.806 615.753 195.972 608.874 198.088 601.985C201.261 591.657 204.437 581.329 207.566 570.986C210.841 560.166 214.085 549.241 215.382 537.974C216.697 526.533 215.408 515.47 212.692 504.337C210.592 495.732 208.522 487.018 208.725 478.097C208.945 468.36 211.648 459.106 214.18 449.772C217.152 438.81 219.762 427.797 221.618 416.586C223.47 405.393 224.646 394.141 225.638 382.844C226.656 371.229 227.094 359.518 227.308 347.865C227.516 336.57 227.782 325.34 226.208 314.126C225.43 308.594 224.445 303.092 223.372 297.61C222.808 294.725 222.213 291.845 221.593 288.97C221.31 287.664 221.024 286.357 220.73 285.052C220.336 283.297 220.336 282.453 220.641 280.696C221.376 276.492 220.92 271.945 220.892 267.677C220.833 259.017 220.769 250.357 220.706 241.697C220.686 238.933 221.3 236.989 222.108 234.294L226.744 218.845L227.713 215.617C230.081 221.669 232.226 227.821 234.146 234.029C236.496 241.628 237.609 249.416 239.512 257.114C243.502 273.261 250.984 288.294 258.72 302.928C262.357 309.809 265.796 316.788 268.997 323.882C270.165 326.47 271.934 329.421 272.521 332.194C272.76 333.325 272.074 334.334 271.898 335.557C271.668 337.152 271.82 338.777 272.08 340.357C272.92 345.492 274.818 350.385 276.653 355.226C277.39 357.168 277.328 359.41 277.548 361.474C277.877 364.56 278.276 367.661 278.378 370.762C278.461 373.218 278.545 375.728 279.494 378.037C280.548 380.605 283.733 382.362 285.324 379.022C286.532 376.484 286.086 372.852 285.81 370.124C285.669 368.728 285.517 367.333 285.44 365.932C285.397 365.136 285.054 363.161 285.678 362.482C286.789 362.972 286.904 366.109 287.045 367.08C287.385 369.412 287.592 371.762 287.81 374.108C288.098 377.197 287.809 381.11 289.35 383.874C290.305 385.59 292.514 386.506 294.181 385.108C296.049 383.542 295.885 380.186 295.828 378.013C295.705 373.393 294.748 368.79 294.98 364.157C297.169 369.248 298.74 374.577 300.944 379.665C301.876 381.816 303.013 385.029 305.302 386.108C307.457 387.122 309.528 385.421 309.95 383.306C310.709 379.508 308.196 374.914 306.894 371.425C305.568 367.864 303.334 363.484 303.348 359.614C306.482 361.92 308.586 366.325 310.73 369.504C312.453 372.058 316.608 379.134 320.425 376.317C323.936 373.726 320.286 368.946 318.71 366.289C316.852 363.153 315.093 359.953 313.384 356.734C311.732 353.622 309.514 350.2 308.726 346.724C311.189 347.318 313.142 350.801 315.168 352.228C317.269 353.706 319.813 354.554 322.332 354.965C324.169 355.266 326.326 355.554 327.854 354.229C330.232 352.168 328.502 349.498 326.345 348.173V348.173ZM176.206 82.0716C176.916 82.1729 177.318 82.2316 177.318 82.2316C177.318 82.2316 176.964 82.0329 176.341 81.6862C175.709 81.3556 174.805 80.8596 173.641 80.4662C173.064 80.2609 172.445 79.9903 171.756 79.8396C171.074 79.669 170.357 79.4449 169.596 79.3196C168.833 79.2116 168.049 79.0343 167.24 78.9743C166.429 78.9343 165.606 78.837 164.781 78.8423C163.132 78.8636 161.477 78.9569 159.958 79.2623C159.193 79.3609 158.473 79.5876 157.788 79.7463C157.108 79.9463 156.469 80.1356 155.894 80.3662C153.573 81.2169 152.253 82.2316 152.253 82.2316C152.253 82.2316 153.846 81.8529 156.192 81.4996C157.365 81.3276 158.729 81.1556 160.193 81.0476C160.921 80.9742 161.677 80.9556 162.444 80.9236C163.209 80.8623 163.989 80.8929 164.766 80.8916C166.325 80.8769 167.878 80.9996 169.342 81.1076C170.074 81.1889 170.781 81.265 171.45 81.3396C172.128 81.3983 172.753 81.5316 173.345 81.6063C173.928 81.7103 174.486 81.7409 174.96 81.8502C175.441 81.9342 175.861 82.0102 176.206 82.0716V82.0716ZM181.406 635.644C181.3 634.311 181.222 633.262 181.205 632.545C181.173 631.826 181.156 631.444 181.156 631.444C181.156 631.444 181.134 631.826 181.094 632.544C181.048 633.261 180.986 634.317 181.008 635.662C181.029 638.348 181.25 642.221 182.156 646.757C183.038 651.287 184.361 656.504 185.102 662.087C185.457 664.946 185.772 667.821 185.092 670.551C184.772 671.892 184.19 673.146 183.236 674.008C182.293 674.88 181.014 675.351 179.64 675.533C178.273 675.745 176.786 675.646 175.365 675.456C174.694 675.381 173.832 675.202 173.209 675.069C172.604 674.945 172.093 674.634 171.644 674.241C170.742 673.444 170.212 672.142 169.92 670.811C169.62 669.469 169.524 668.06 169.528 666.669C169.561 663.882 169.866 661.151 170.304 658.59C170.522 657.309 170.778 656.068 171.058 654.875C171.314 653.678 171.704 652.596 171.946 651.387C172.405 649.077 172.541 646.975 172.694 645.108C172.808 643.241 172.909 641.614 172.99 640.273C173.113 637.592 173.122 636.058 173.122 636.058C173.122 636.058 172.93 637.578 172.594 640.239C172.413 641.565 172.193 643.175 171.94 645.022C171.645 646.856 171.338 648.951 170.825 651.133C170.574 652.169 170.106 653.333 169.788 654.544C169.445 655.749 169.126 657.004 168.842 658.304C168.281 660.906 167.794 663.693 167.752 666.653C167.726 668.13 167.8 669.653 168.12 671.201C168.442 672.724 169.009 674.386 170.35 675.646C171.01 676.257 171.845 676.751 172.729 676.953C173.584 677.15 174.214 677.293 175.056 677.409C176.646 677.646 178.249 677.787 179.921 677.563C181.568 677.336 183.297 676.692 184.59 675.456C185.9 674.227 186.601 672.574 186.953 671.001C187.693 667.827 187.249 664.668 186.868 661.869C186.025 656.068 184.317 650.963 183.284 646.513C182.213 642.074 181.594 638.311 181.406 635.644V635.644ZM177.226 480.353C183.098 478.453 190.333 477.85 196.201 480.188C196.854 480.398 197.504 480.604 198.165 480.781C192.63 475.901 182.826 474.893 177.226 480.353ZM259.506 254.057C259.106 254.13 258.681 254.212 258.245 254.322C257.802 254.413 257.328 254.41 256.86 254.497C256.385 254.613 255.902 254.494 255.418 254.546C254.929 254.582 254.466 254.43 253.986 254.396C253.538 254.25 253.049 254.206 252.638 253.977C252.205 253.798 251.784 253.602 251.404 253.342C250.642 252.84 249.954 252.26 249.425 251.672C248.341 250.518 247.718 249.533 247.718 249.533C247.718 249.533 247.666 250.728 248.453 252.326C248.637 252.733 248.885 253.149 249.194 253.566C249.509 253.974 249.862 254.414 250.313 254.777C250.757 255.152 251.241 255.522 251.812 255.774C252.352 256.089 252.984 256.205 253.58 256.405C254.198 256.449 254.826 256.586 255.425 256.526C256.022 256.474 256.628 256.457 257.157 256.278C258.257 256.029 259.185 255.585 259.937 255.153C260.706 254.76 261.234 254.242 261.63 253.945C262.013 253.624 262.216 253.425 262.216 253.425C262.216 253.425 261.924 253.473 261.442 253.582C260.953 253.67 260.305 253.912 259.506 254.057V254.057ZM165.494 218.012C165.401 214.197 165.2 211.02 165.118 208.794C164.992 206.57 164.918 205.298 164.918 205.298C164.918 205.298 164.848 206.57 164.721 208.794C164.638 211.02 164.437 214.197 164.345 218.012C164.253 221.825 164.084 226.274 164.018 231.042C163.932 235.809 163.917 236.793 163.894 241.877C163.916 246.962 163.929 249.996 164.017 254.764C164.077 259.53 164.252 263.981 164.342 267.794C164.433 271.608 164.637 274.786 164.72 277.012C164.846 279.236 164.918 280.508 164.918 280.508C164.918 280.508 164.992 279.236 165.12 277.012C165.201 274.786 165.405 271.608 165.497 267.794C165.586 263.981 165.761 259.53 165.822 254.764C165.91 249.996 165.922 246.962 165.944 241.877C165.922 236.793 165.908 235.809 165.82 231.042C165.754 226.274 165.584 221.825 165.494 218.012ZM202.858 204.67C201.861 204.83 200.612 204.757 199.292 204.282C197.965 203.826 196.589 203.002 195.186 201.976C192.376 199.898 189.618 196.792 187.004 193.249C184.388 189.704 181.885 185.681 179.813 181.476C178.81 179.372 177.833 177.214 177.25 175.085C176.728 172.922 176.505 170.7 176.428 168.51C176.366 164.13 176.673 159.977 177.098 156.444C177.554 152.912 177.928 149.95 178.289 147.893C178.632 145.83 178.828 144.652 178.828 144.652C178.828 144.652 178.416 145.777 177.838 147.793C177.286 149.812 176.434 152.694 175.793 156.241C175.149 159.782 174.418 163.952 174.388 168.529C174.366 170.814 174.542 173.222 175.118 175.636C175.772 178.045 176.717 180.285 177.806 182.465C179.976 186.818 182.622 190.89 185.464 194.438C188.316 197.97 191.402 200.966 194.482 202.988C196.016 204.005 197.596 204.7 199.068 205.054C200.54 205.421 201.906 205.362 202.946 205.084C203.994 204.8 204.704 204.318 205.15 203.981C205.6 203.638 205.809 203.425 205.809 203.425C205.809 203.425 205.572 203.609 205.086 203.884C204.609 204.165 203.854 204.497 202.858 204.67V204.67ZM78.1691 253.342C77.7891 253.602 77.3677 253.798 76.9344 253.977C76.5237 254.206 76.0331 254.25 75.5864 254.396C75.1064 254.43 74.6424 254.582 74.1544 254.546C73.6704 254.494 73.1877 254.613 72.7144 254.497C72.2451 254.41 71.7704 254.413 71.3291 254.322C70.8917 254.212 70.4664 254.13 70.0664 254.057C69.2677 253.912 68.6197 253.67 68.1304 253.582C67.6477 253.473 67.3571 253.425 67.3571 253.425C67.3571 253.425 67.5597 253.624 67.9437 253.945C68.3384 254.242 68.8664 254.76 69.6357 255.153C70.3877 255.585 71.3144 256.029 72.4157 256.278C72.9437 256.457 73.5517 256.474 74.1464 256.526C74.7464 256.586 75.3744 256.449 75.9931 256.405C76.5891 256.205 77.2211 256.089 77.7597 255.774C78.3331 255.522 78.8157 255.152 79.2597 254.777C79.7104 254.414 80.0637 253.974 80.3771 253.566C80.6877 253.149 80.9371 252.733 81.1197 252.326C81.9051 250.728 81.8544 249.533 81.8544 249.533C81.8544 249.533 81.2317 250.518 80.1477 251.672C79.6184 252.26 78.9304 252.84 78.1691 253.342V253.342ZM164.781 490.837L164.81 490.821L164.761 490.844L164.781 490.837ZM150.197 675.533C148.824 675.351 147.545 674.88 146.604 674.008C145.649 673.146 145.066 671.892 144.748 670.551C144.066 667.821 144.381 664.946 144.736 662.087C145.477 656.504 146.8 651.287 147.684 646.757C148.588 642.221 148.808 638.348 148.83 635.662C148.853 634.317 148.792 633.261 148.745 632.544C148.704 631.826 148.684 631.444 148.684 631.444C148.684 631.444 148.665 631.826 148.633 632.545C148.616 633.262 148.54 634.311 148.432 635.644C148.244 638.311 147.626 642.074 146.554 646.513C145.521 650.963 143.813 656.068 142.97 661.869C142.59 664.668 142.145 667.827 142.886 671.001C143.237 672.574 143.938 674.227 145.248 675.456C146.542 676.692 148.272 677.336 149.917 677.563C151.589 677.787 153.193 677.646 154.782 677.409C155.624 677.293 156.253 677.15 157.109 676.953C157.993 676.751 158.829 676.257 159.489 675.646C160.829 674.386 161.396 672.724 161.72 671.201C162.038 669.653 162.113 668.13 162.086 666.653C162.044 663.693 161.557 660.906 160.997 658.304C160.712 657.004 160.394 655.749 160.05 654.544C159.733 653.333 159.264 652.169 159.014 651.133C158.5 648.951 158.193 646.856 157.9 645.022C157.645 643.175 157.425 641.565 157.245 640.239C156.909 637.578 156.717 636.058 156.717 636.058C156.717 636.058 156.726 637.592 156.849 640.273C156.93 641.614 157.029 643.241 157.144 645.108C157.298 646.975 157.434 649.077 157.892 651.387C158.134 652.596 158.525 653.678 158.78 654.875C159.061 656.068 159.316 657.309 159.534 658.59C159.972 661.151 160.278 663.882 160.31 666.669C160.316 668.06 160.218 669.469 159.918 670.811C159.626 672.142 159.096 673.444 158.194 674.241C157.746 674.634 157.236 674.945 156.629 675.069C156.006 675.202 155.144 675.381 154.473 675.456C153.052 675.646 151.565 675.745 150.197 675.533V675.533ZM151.736 147.793C151.157 145.777 150.745 144.652 150.745 144.652C150.745 144.652 150.941 145.83 151.284 147.893C151.644 149.95 152.02 152.912 152.473 156.444C152.9 159.977 153.205 164.13 153.144 168.51C153.069 170.7 152.845 172.922 152.322 175.085C151.74 177.214 150.761 179.372 149.758 181.476C147.688 185.681 145.185 189.704 142.569 193.249C139.954 196.792 137.196 199.898 134.386 201.976C132.982 203.002 131.608 203.826 130.281 204.282C128.961 204.757 127.712 204.83 126.714 204.67C125.718 204.497 124.965 204.165 124.485 203.884C124.002 203.609 123.762 203.425 123.762 203.425C123.762 203.425 123.972 203.638 124.421 203.981C124.868 204.318 125.578 204.8 126.626 205.084C127.668 205.362 129.032 205.421 130.505 205.054C131.976 204.7 133.557 204.005 135.089 202.988C138.17 200.966 141.256 197.97 144.11 194.438C146.95 190.89 149.596 186.818 151.765 182.465C152.857 180.285 153.801 178.045 154.454 175.636C155.029 173.222 155.205 170.814 155.185 168.529C155.153 163.952 154.422 159.782 153.78 156.241C153.138 152.694 152.286 149.812 151.736 147.793V147.793ZM164.796 77.6596L164.777 77.6222L164.788 77.6476L164.796 77.6596ZM152.613 480.353C147.013 474.893 137.209 475.901 131.673 480.781C132.334 480.604 132.984 480.398 133.637 480.188C139.505 477.85 146.741 478.453 152.613 480.353Z" fill="#737373"/>
</svg>
