<svg xmlns="http://www.w3.org/2000/svg" xmlns:xlink="http://www.w3.org/1999/xlink" width="1080" zoomAndPan="magnify" viewBox="0 0 810 374.999991" height="500" preserveAspectRatio="xMidYMid meet" version="1.2"><defs><clipPath id="840dd2b245"><path d="M 105.792969 119.8125 L 144.980469 119.8125 L 144.980469 159.003906 L 105.792969 159.003906 Z M 105.792969 119.8125 "/></clipPath><clipPath id="37ca78f51f"><path d="M 125.386719 119.8125 C 114.566406 119.8125 105.792969 128.585938 105.792969 139.40625 C 105.792969 150.230469 114.566406 159.003906 125.386719 159.003906 C 136.210938 159.003906 144.980469 150.230469 144.980469 139.40625 C 144.980469 128.585938 136.210938 119.8125 125.386719 119.8125 Z M 125.386719 119.8125 "/></clipPath><clipPath id="d33cfaf37f"><path d="M 111.03125 117.546875 L 138.371094 117.546875 L 138.371094 125.398438 L 111.03125 125.398438 Z M 111.03125 117.546875 "/></clipPath><clipPath id="ce5c011331"><path d="M 133.410156 125.34375 C 121.125 123.085938 117.578125 124.160156 116.148438 123.265625 C 115.25 122.691406 114.605469 121.1875 114.820312 120.542969 C 115 120.007812 115.96875 119.828125 116.898438 119.503906 C 118.652344 118.859375 122.449219 117.785156 124.816406 117.605469 C 126.675781 117.429688 128.179688 117.679688 129.898438 117.964844 C 131.691406 118.25 133.910156 118.753906 135.34375 119.328125 C 136.417969 119.757812 137.492188 120.113281 137.921875 120.832031 C 138.351562 121.4375 138.425781 122.515625 138.171875 123.160156 C 137.921875 123.804688 137.0625 124.519531 136.382812 124.664062 C 135.703125 124.804688 134.628906 124.484375 134.125 124.019531 C 133.625 123.515625 133.265625 122.441406 133.410156 121.796875 C 133.519531 121.117188 134.199219 120.222656 134.84375 119.933594 C 135.453125 119.648438 136.597656 119.71875 137.171875 120.078125 C 137.742188 120.4375 138.28125 121.4375 138.351562 122.085938 C 138.425781 122.621094 138.246094 123.230469 137.921875 123.625 C 137.492188 124.125 136.707031 124.628906 135.847656 124.699219 C 134.554688 124.804688 132.550781 123.589844 130.9375 123.195312 C 129.398438 122.835938 127.609375 122.550781 126.355469 122.441406 C 125.496094 122.40625 125.066406 122.371094 124.167969 122.515625 C 122.488281 122.765625 119.011719 124.054688 117.1875 124.339844 C 116.074219 124.519531 115.25 124.628906 114.355469 124.484375 C 113.460938 124.304688 112.351562 123.980469 111.8125 123.335938 C 111.277344 122.65625 110.847656 121.296875 111.132812 120.507812 C 111.457031 119.683594 112.886719 118.824219 113.785156 118.503906 C 114.570312 118.25 115.144531 118.464844 116.148438 118.464844 C 118.007812 118.503906 121.125 118.429688 123.847656 118.753906 C 126.925781 119.113281 131.621094 120.007812 133.695312 120.6875 C 134.699219 121.046875 135.414062 121.296875 135.847656 121.796875 C 136.203125 122.226562 136.453125 122.765625 136.417969 123.265625 C 136.382812 123.839844 135.953125 124.734375 135.453125 125.09375 C 134.949219 125.449219 133.410156 125.34375 133.410156 125.34375 "/></clipPath><clipPath id="784415510d"><path d="M 105.792969 113.453125 L 144.980469 113.453125 L 144.980469 152.640625 L 105.792969 152.640625 Z M 105.792969 113.453125 "/></clipPath><clipPath id="242ca1521b"><path d="M 125.386719 113.453125 C 114.566406 113.453125 105.792969 122.226562 105.792969 133.046875 C 105.792969 143.867188 114.566406 152.640625 125.386719 152.640625 C 136.210938 152.640625 144.980469 143.867188 144.980469 133.046875 C 144.980469 122.226562 136.210938 113.453125 125.386719 113.453125 Z M 125.386719 113.453125 "/></clipPath><clipPath id="5d9a6c528e"><path d="M 611.011719 121.492188 L 650.199219 121.492188 L 650.199219 160.683594 L 611.011719 160.683594 Z M 611.011719 121.492188 "/></clipPath><clipPath id="fb900cd3e1"><path d="M 630.605469 121.492188 C 619.785156 121.492188 611.011719 130.265625 611.011719 141.089844 C 611.011719 151.910156 619.785156 160.683594 630.605469 160.683594 C 641.425781 160.683594 650.199219 151.910156 650.199219 141.089844 C 650.199219 130.265625 641.425781 121.492188 630.605469 121.492188 Z M 630.605469 121.492188 "/></clipPath><clipPath id="79d6efad2b"><path d="M 611.011719 116.175781 L 650.199219 116.175781 L 650.199219 155.363281 L 611.011719 155.363281 Z M 611.011719 116.175781 "/></clipPath><clipPath id="ea2d3aab4a"><path d="M 630.605469 116.175781 C 619.785156 116.175781 611.011719 124.949219 611.011719 135.769531 C 611.011719 146.589844 619.785156 155.363281 630.605469 155.363281 C 641.425781 155.363281 650.199219 146.589844 650.199219 135.769531 C 650.199219 124.949219 641.425781 116.175781 630.605469 116.175781 Z M 630.605469 116.175781 "/></clipPath></defs><g id="d73b663e4f"><g style="fill:#000000;fill-opacity:1;"><g transform="translate(10.795404, 238.97168)"><path style="stroke:none" d="M 34.5625 1.640625 C 26.21875 1.640625 19.300781 -0.535156 13.8125 -4.890625 C 8.320312 -9.242188 5.578125 -15.742188 5.578125 -24.390625 C 5.578125 -30.898438 7.109375 -36.007812 10.171875 -39.71875 C 13.242188 -43.4375 17.269531 -46.15625 22.25 -47.875 C 27.238281 -49.601562 32.613281 -50.734375 38.375 -51.265625 C 45.945312 -52.023438 51.363281 -52.820312 54.625 -53.65625 C 57.882812 -54.488281 59.515625 -56.304688 59.515625 -59.109375 L 59.515625 -59.453125 C 59.515625 -63.054688 58.382812 -65.84375 56.125 -67.8125 C 53.875 -69.78125 50.679688 -70.765625 46.546875 -70.765625 C 42.191406 -70.765625 38.722656 -69.816406 36.140625 -67.921875 C 33.566406 -66.023438 31.863281 -63.617188 31.03125 -60.703125 L 8.640625 -62.53125 C 10.304688 -70.488281 14.445312 -76.796875 21.0625 -81.453125 C 27.675781 -86.109375 36.210938 -88.4375 46.671875 -88.4375 C 53.148438 -88.4375 59.210938 -87.414062 64.859375 -85.375 C 70.503906 -83.332031 75.054688 -80.140625 78.515625 -75.796875 C 81.984375 -71.453125 83.71875 -65.816406 83.71875 -58.890625 L 83.71875 0 L 60.765625 0 L 60.765625 -12.109375 L 60.078125 -12.109375 C 57.953125 -8.054688 54.773438 -4.75 50.546875 -2.1875 C 46.328125 0.363281 41 1.640625 34.5625 1.640625 Z M 41.5 -15.0625 C 46.800781 -15.0625 51.15625 -16.601562 54.5625 -19.6875 C 57.976562 -22.78125 59.6875 -26.617188 59.6875 -31.203125 L 59.6875 -40.46875 C 58.738281 -39.820312 57.269531 -39.253906 55.28125 -38.765625 C 53.289062 -38.273438 51.164062 -37.847656 48.90625 -37.484375 C 46.65625 -37.128906 44.640625 -36.816406 42.859375 -36.546875 C 38.609375 -35.941406 35.1875 -34.75 32.59375 -32.96875 C 30 -31.1875 28.703125 -28.59375 28.703125 -25.1875 C 28.703125 -21.84375 29.90625 -19.316406 32.3125 -17.609375 C 34.71875 -15.910156 37.78125 -15.0625 41.5 -15.0625 Z M 41.5 -15.0625 "/></g></g><g style="fill:#000000;fill-opacity:1;"><g transform="translate(103.6649, 238.97168)"><path style="stroke:none" d="M 9.65625 0 L 9.65625 -87.3125 L 33.875 -87.3125 L 33.875 0 Z M 21.8125 -98.5625 C 18.257812 -98.5625 15.191406 -99.765625 12.609375 -102.171875 C 10.035156 -104.578125 8.75 -107.46875 8.75 -110.84375 C 8.75 -114.207031 10.035156 -117.082031 12.609375 -119.46875 C 15.191406 -121.863281 18.257812 -123.0625 21.8125 -123.0625 C 25.414062 -123.0625 28.503906 -121.863281 31.078125 -119.46875 C 33.660156 -117.082031 34.953125 -114.207031 34.953125 -110.84375 C 34.953125 -107.46875 33.660156 -104.578125 31.078125 -102.171875 C 28.503906 -99.765625 25.414062 -98.5625 21.8125 -98.5625 Z M 21.8125 -98.5625 "/></g></g><g style="fill:#000000;fill-opacity:1;"><g transform="translate(147.201039, 238.97168)"><path style="stroke:none" d="M 9.65625 0 L 9.65625 -87.3125 L 32.734375 -87.3125 L 32.734375 -71.90625 L 33.765625 -71.90625 C 35.578125 -77.0625 38.613281 -81.101562 42.875 -84.03125 C 47.144531 -86.96875 52.21875 -88.4375 58.09375 -88.4375 C 64.082031 -88.4375 69.175781 -86.945312 73.375 -83.96875 C 77.582031 -81 80.390625 -76.976562 81.796875 -71.90625 L 82.703125 -71.90625 C 84.484375 -76.90625 87.710938 -80.910156 92.390625 -83.921875 C 97.066406 -86.929688 102.609375 -88.4375 109.015625 -88.4375 C 117.160156 -88.4375 123.78125 -85.847656 128.875 -80.671875 C 133.976562 -75.503906 136.53125 -68.1875 136.53125 -58.71875 L 136.53125 0 L 112.375 0 L 112.375 -53.9375 C 112.375 -58.789062 111.082031 -62.429688 108.5 -64.859375 C 105.925781 -67.285156 102.707031 -68.5 98.84375 -68.5 C 94.445312 -68.5 91.015625 -67.09375 88.546875 -64.28125 C 86.085938 -61.476562 84.859375 -57.820312 84.859375 -53.3125 L 84.859375 0 L 61.390625 0 L 61.390625 -54.453125 C 61.390625 -58.734375 60.164062 -62.144531 57.71875 -64.6875 C 55.28125 -67.226562 52.070312 -68.5 48.09375 -68.5 C 44.070312 -68.5 40.695312 -67.03125 37.96875 -64.09375 C 35.238281 -61.15625 33.875 -57.257812 33.875 -52.40625 L 33.875 0 Z M 9.65625 0 "/></g></g><g clip-rule="nonzero" clip-path="url(#840dd2b245)"><g clip-rule="nonzero" clip-path="url(#37ca78f51f)"><path style=" stroke:none;fill-rule:nonzero;fill:#ffffff;fill-opacity:1;" d="M 105.792969 119.8125 L 144.980469 119.8125 L 144.980469 159.003906 L 105.792969 159.003906 Z M 105.792969 119.8125 "/></g></g><g clip-rule="nonzero" clip-path="url(#d33cfaf37f)"><g clip-rule="nonzero" clip-path="url(#ce5c011331)"><path style=" stroke:none;fill-rule:nonzero;fill:#ffffff;fill-opacity:1;" d="M 109.699219 116.175781 L 139.785156 116.175781 L 139.785156 126.8125 L 109.699219 126.8125 Z M 109.699219 116.175781 "/></g></g><g clip-rule="nonzero" clip-path="url(#784415510d)"><g clip-rule="nonzero" clip-path="url(#242ca1521b)"><path style=" stroke:none;fill-rule:nonzero;fill:#2463eb;fill-opacity:1;" d="M 105.792969 113.453125 L 144.980469 113.453125 L 144.980469 152.640625 L 105.792969 152.640625 Z M 105.792969 113.453125 "/></g></g><g style="fill:#000000;fill-opacity:1;"><g transform="translate(336.324939, 238.97168)"><path style="stroke:none" d="M 34.5625 1.640625 C 26.21875 1.640625 19.300781 -0.535156 13.8125 -4.890625 C 8.320312 -9.242188 5.578125 -15.742188 5.578125 -24.390625 C 5.578125 -30.898438 7.109375 -36.007812 10.171875 -39.71875 C 13.242188 -43.4375 17.269531 -46.15625 22.25 -47.875 C 27.238281 -49.601562 32.613281 -50.734375 38.375 -51.265625 C 45.945312 -52.023438 51.363281 -52.820312 54.625 -53.65625 C 57.882812 -54.488281 59.515625 -56.304688 59.515625 -59.109375 L 59.515625 -59.453125 C 59.515625 -63.054688 58.382812 -65.84375 56.125 -67.8125 C 53.875 -69.78125 50.679688 -70.765625 46.546875 -70.765625 C 42.191406 -70.765625 38.722656 -69.816406 36.140625 -67.921875 C 33.566406 -66.023438 31.863281 -63.617188 31.03125 -60.703125 L 8.640625 -62.53125 C 10.304688 -70.488281 14.445312 -76.796875 21.0625 -81.453125 C 27.675781 -86.109375 36.210938 -88.4375 46.671875 -88.4375 C 53.148438 -88.4375 59.210938 -87.414062 64.859375 -85.375 C 70.503906 -83.332031 75.054688 -80.140625 78.515625 -75.796875 C 81.984375 -71.453125 83.71875 -65.816406 83.71875 -58.890625 L 83.71875 0 L 60.765625 0 L 60.765625 -12.109375 L 60.078125 -12.109375 C 57.953125 -8.054688 54.773438 -4.75 50.546875 -2.1875 C 46.328125 0.363281 41 1.640625 34.5625 1.640625 Z M 41.5 -15.0625 C 46.800781 -15.0625 51.15625 -16.601562 54.5625 -19.6875 C 57.976562 -22.78125 59.6875 -26.617188 59.6875 -31.203125 L 59.6875 -40.46875 C 58.738281 -39.820312 57.269531 -39.253906 55.28125 -38.765625 C 53.289062 -38.273438 51.164062 -37.847656 48.90625 -37.484375 C 46.65625 -37.128906 44.640625 -36.816406 42.859375 -36.546875 C 38.609375 -35.941406 35.1875 -34.75 32.59375 -32.96875 C 30 -31.1875 28.703125 -28.59375 28.703125 -25.1875 C 28.703125 -21.84375 29.90625 -19.316406 32.3125 -17.609375 C 34.71875 -15.910156 37.78125 -15.0625 41.5 -15.0625 Z M 41.5 -15.0625 "/></g></g><g style="fill:#000000;fill-opacity:1;"><g transform="translate(429.194435, 238.97168)"><path style="stroke:none" d="M 82.3125 -62.40625 L 60.140625 -61.046875 C 59.535156 -63.847656 58 -66.253906 55.53125 -68.265625 C 53.070312 -70.273438 49.738281 -71.28125 45.53125 -71.28125 C 41.78125 -71.28125 38.601562 -70.492188 36 -68.921875 C 33.40625 -67.347656 32.128906 -65.253906 32.171875 -62.640625 C 32.128906 -60.554688 32.953125 -58.789062 34.640625 -57.34375 C 36.328125 -55.90625 39.195312 -54.753906 43.25 -53.890625 L 59.0625 -50.703125 C 75.84375 -47.253906 84.253906 -39.375 84.296875 -27.0625 C 84.296875 -21.332031 82.617188 -16.304688 79.265625 -11.984375 C 75.910156 -7.671875 71.316406 -4.3125 65.484375 -1.90625 C 59.648438 0.5 52.960938 1.703125 45.421875 1.703125 C 33.859375 1.703125 24.644531 -0.710938 17.78125 -5.546875 C 10.925781 -10.378906 6.929688 -16.960938 5.796875 -25.296875 L 29.609375 -26.546875 C 30.367188 -22.984375 32.125 -20.289062 34.875 -18.46875 C 37.625 -16.65625 41.15625 -15.75 45.46875 -15.75 C 49.71875 -15.75 53.140625 -16.582031 55.734375 -18.25 C 58.328125 -19.914062 59.644531 -22.035156 59.6875 -24.609375 C 59.570312 -28.929688 55.835938 -31.832031 48.484375 -33.3125 L 33.359375 -36.328125 C 16.460938 -39.691406 8.050781 -48.007812 8.125 -61.28125 C 8.09375 -69.6875 11.457031 -76.3125 18.21875 -81.15625 C 24.976562 -86.007812 33.945312 -88.4375 45.125 -88.4375 C 56.15625 -88.4375 64.84375 -86.109375 71.1875 -81.453125 C 77.539062 -76.796875 81.25 -70.445312 82.3125 -62.40625 Z M 82.3125 -62.40625 "/></g></g><g style="fill:#000000;fill-opacity:1;"><g transform="translate(519.108492, 238.97168)"><path style="stroke:none" d="M 82.3125 -62.40625 L 60.140625 -61.046875 C 59.535156 -63.847656 58 -66.253906 55.53125 -68.265625 C 53.070312 -70.273438 49.738281 -71.28125 45.53125 -71.28125 C 41.78125 -71.28125 38.601562 -70.492188 36 -68.921875 C 33.40625 -67.347656 32.128906 -65.253906 32.171875 -62.640625 C 32.128906 -60.554688 32.953125 -58.789062 34.640625 -57.34375 C 36.328125 -55.90625 39.195312 -54.753906 43.25 -53.890625 L 59.0625 -50.703125 C 75.84375 -47.253906 84.253906 -39.375 84.296875 -27.0625 C 84.296875 -21.332031 82.617188 -16.304688 79.265625 -11.984375 C 75.910156 -7.671875 71.316406 -4.3125 65.484375 -1.90625 C 59.648438 0.5 52.960938 1.703125 45.421875 1.703125 C 33.859375 1.703125 24.644531 -0.710938 17.78125 -5.546875 C 10.925781 -10.378906 6.929688 -16.960938 5.796875 -25.296875 L 29.609375 -26.546875 C 30.367188 -22.984375 32.125 -20.289062 34.875 -18.46875 C 37.625 -16.65625 41.15625 -15.75 45.46875 -15.75 C 49.71875 -15.75 53.140625 -16.582031 55.734375 -18.25 C 58.328125 -19.914062 59.644531 -22.035156 59.6875 -24.609375 C 59.570312 -28.929688 55.835938 -31.832031 48.484375 -33.3125 L 33.359375 -36.328125 C 16.460938 -39.691406 8.050781 -48.007812 8.125 -61.28125 C 8.09375 -69.6875 11.457031 -76.3125 18.21875 -81.15625 C 24.976562 -86.007812 33.945312 -88.4375 45.125 -88.4375 C 56.15625 -88.4375 64.84375 -86.109375 71.1875 -81.453125 C 77.539062 -76.796875 81.25 -70.445312 82.3125 -62.40625 Z M 82.3125 -62.40625 "/></g></g><g style="fill:#000000;fill-opacity:1;"><g transform="translate(609.022548, 238.97168)"><path style="stroke:none" d="M 9.65625 0 L 9.65625 -87.3125 L 33.875 -87.3125 L 33.875 0 Z M 21.8125 -98.5625 C 18.257812 -98.5625 15.191406 -99.765625 12.609375 -102.171875 C 10.035156 -104.578125 8.75 -107.46875 8.75 -110.84375 C 8.75 -114.207031 10.035156 -117.082031 12.609375 -119.46875 C 15.191406 -121.863281 18.257812 -123.0625 21.8125 -123.0625 C 25.414062 -123.0625 28.503906 -121.863281 31.078125 -119.46875 C 33.660156 -117.082031 34.953125 -114.207031 34.953125 -110.84375 C 34.953125 -107.46875 33.660156 -104.578125 31.078125 -102.171875 C 28.503906 -99.765625 25.414062 -98.5625 21.8125 -98.5625 Z M 21.8125 -98.5625 "/></g></g><g style="fill:#000000;fill-opacity:1;"><g transform="translate(652.558687, 238.97168)"><path style="stroke:none" d="M 82.3125 -62.40625 L 60.140625 -61.046875 C 59.535156 -63.847656 58 -66.253906 55.53125 -68.265625 C 53.070312 -70.273438 49.738281 -71.28125 45.53125 -71.28125 C 41.78125 -71.28125 38.601562 -70.492188 36 -68.921875 C 33.40625 -67.347656 32.128906 -65.253906 32.171875 -62.640625 C 32.128906 -60.554688 32.953125 -58.789062 34.640625 -57.34375 C 36.328125 -55.90625 39.195312 -54.753906 43.25 -53.890625 L 59.0625 -50.703125 C 75.84375 -47.253906 84.253906 -39.375 84.296875 -27.0625 C 84.296875 -21.332031 82.617188 -16.304688 79.265625 -11.984375 C 75.910156 -7.671875 71.316406 -4.3125 65.484375 -1.90625 C 59.648438 0.5 52.960938 1.703125 45.421875 1.703125 C 33.859375 1.703125 24.644531 -0.710938 17.78125 -5.546875 C 10.925781 -10.378906 6.929688 -16.960938 5.796875 -25.296875 L 29.609375 -26.546875 C 30.367188 -22.984375 32.125 -20.289062 34.875 -18.46875 C 37.625 -16.65625 41.15625 -15.75 45.46875 -15.75 C 49.71875 -15.75 53.140625 -16.582031 55.734375 -18.25 C 58.328125 -19.914062 59.644531 -22.035156 59.6875 -24.609375 C 59.570312 -28.929688 55.835938 -31.832031 48.484375 -33.3125 L 33.359375 -36.328125 C 16.460938 -39.691406 8.050781 -48.007812 8.125 -61.28125 C 8.09375 -69.6875 11.457031 -76.3125 18.21875 -81.15625 C 24.976562 -86.007812 33.945312 -88.4375 45.125 -88.4375 C 56.15625 -88.4375 64.84375 -86.109375 71.1875 -81.453125 C 77.539062 -76.796875 81.25 -70.445312 82.3125 -62.40625 Z M 82.3125 -62.40625 "/></g></g><g style="fill:#000000;fill-opacity:1;"><g transform="translate(742.472723, 238.97168)"><path style="stroke:none" d="M 56.09375 -87.3125 L 56.09375 -69.125 L 39.671875 -69.125 L 39.671875 -26.828125 C 39.671875 -23.492188 40.425781 -21.238281 41.9375 -20.0625 C 43.457031 -18.882812 45.429688 -18.296875 47.859375 -18.296875 C 48.992188 -18.296875 50.128906 -18.398438 51.265625 -18.609375 C 52.398438 -18.816406 53.273438 -18.976562 53.890625 -19.09375 L 57.6875 -1.078125 C 56.476562 -0.703125 54.773438 -0.257812 52.578125 0.25 C 50.378906 0.757812 47.707031 1.070312 44.5625 1.1875 C 35.769531 1.570312 28.710938 -0.328125 23.390625 -4.515625 C 18.066406 -8.703125 15.421875 -15.078125 15.453125 -23.640625 L 15.453125 -69.125 L 3.53125 -69.125 L 3.53125 -87.3125 L 15.453125 -87.3125 L 15.453125 -108.21875 L 39.671875 -108.21875 L 39.671875 -87.3125 Z M 56.09375 -87.3125 "/></g></g><g clip-rule="nonzero" clip-path="url(#5d9a6c528e)"><g clip-rule="nonzero" clip-path="url(#fb900cd3e1)"><path style=" stroke:none;fill-rule:nonzero;fill:#ffffff;fill-opacity:1;" d="M 611.011719 121.492188 L 650.199219 121.492188 L 650.199219 160.683594 L 611.011719 160.683594 Z M 611.011719 121.492188 "/></g></g><g clip-rule="nonzero" clip-path="url(#79d6efad2b)"><g clip-rule="nonzero" clip-path="url(#ea2d3aab4a)"><path style=" stroke:none;fill-rule:nonzero;fill:#2463eb;fill-opacity:1;" d="M 611.011719 116.175781 L 650.199219 116.175781 L 650.199219 155.363281 L 611.011719 155.363281 Z M 611.011719 116.175781 "/></g></g></g></svg>